<?xml version="1.0" encoding="utf-8" standalone="no"?>
<!DOCTYPE svg PUBLIC "-//W3C//DTD SVG 1.1//EN"
  "http://www.w3.org/Graphics/SVG/1.1/DTD/svg11.dtd">
<svg xmlns:xlink="http://www.w3.org/1999/xlink" width="460.8pt" height="345.6pt" viewBox="0 0 460.8 345.6" xmlns="http://www.w3.org/2000/svg" version="1.1">
 <metadata>
  <rdf:RDF xmlns:dc="http://purl.org/dc/elements/1.1/" xmlns:cc="http://creativecommons.org/ns#" xmlns:rdf="http://www.w3.org/1999/02/22-rdf-syntax-ns#">
   <cc:Work>
    <dc:type rdf:resource="http://purl.org/dc/dcmitype/StillImage"/>
    <dc:date>2024-10-26T00:31:03.831553</dc:date>
    <dc:format>image/svg+xml</dc:format>
    <dc:creator>
     <cc:Agent>
      <dc:title>Matplotlib v3.5.3, https://matplotlib.org/</dc:title>
     </cc:Agent>
    </dc:creator>
   </cc:Work>
  </rdf:RDF>
 </metadata>
 <defs>
  <style type="text/css">*{stroke-linejoin: round; stroke-linecap: butt}</style>
 </defs>
 <g id="figure_1">
  <g id="patch_1">
   <path d="M 0 345.6 
L 460.8 345.6 
L 460.8 0 
L 0 0 
z
" style="fill: #ffffff"/>
  </g>
  <g id="axes_1">
   <g id="patch_2">
    <path d="M 57.6 307.584 
L 414.72 307.584 
L 414.72 41.472 
L 57.6 41.472 
z
" style="fill: #ffffff"/>
   </g>
   <g id="PolyCollection_1">
    <defs>
     <path id="md706ddc4ea" d="M 73.832727 -172.519366 
L 73.832727 -108.680127 
L 90.919809 -180.966482 
L 108.00689 -190.602109 
L 125.093971 -186.590236 
L 142.181053 -201.609582 
L 159.268134 -214.996929 
L 176.355215 -217.784544 
L 193.442297 -230.584882 
L 210.529378 -233.262303 
L 227.616459 -235.733222 
L 244.703541 -251.844411 
L 261.790622 -256.580978 
L 278.877703 -258.251201 
L 295.964785 -264.732777 
L 313.051866 -263.866956 
L 330.138947 -270.593835 
L 347.226029 -266.788491 
L 364.31311 -272.424702 
L 381.400191 -273.239151 
L 398.487273 -279.97446 
L 398.487273 -290.513808 
L 398.487273 -290.513808 
L 381.400191 -288.194146 
L 364.31311 -287.195909 
L 347.226029 -288.419828 
L 330.138947 -279.735903 
L 313.051866 -277.697655 
L 295.964785 -279.536296 
L 278.877703 -280.877473 
L 261.790622 -281.28989 
L 244.703541 -270.832983 
L 227.616459 -259.534072 
L 210.529378 -259.20854 
L 193.442297 -245.649722 
L 176.355215 -253.041595 
L 159.268134 -237.384298 
L 142.181053 -237.791623 
L 125.093971 -231.818189 
L 108.00689 -220.223548 
L 90.919809 -211.205378 
L 73.832727 -172.519366 
z
" style="stroke: #800080; stroke-opacity: 0.2"/>
    </defs>
    <g clip-path="url(#p1158d20355)">
     <use xlink:href="#md706ddc4ea" x="0" y="345.6" style="fill: #800080; fill-opacity: 0.2; stroke: #800080; stroke-opacity: 0.2"/>
    </g>
   </g>
   <g id="PolyCollection_2">
    <defs>
     <path id="m903ec032bf" d="M 73.832727 -160.28525 
L 73.832727 -98.877319 
L 90.919809 -140.335073 
L 108.00689 -143.640134 
L 125.093971 -169.641566 
L 142.181053 -182.226039 
L 159.268134 -188.050296 
L 176.355215 -206.914901 
L 193.442297 -221.107859 
L 210.529378 -220.71796 
L 227.616459 -237.659186 
L 244.703541 -230.352527 
L 261.790622 -241.845317 
L 278.877703 -246.539162 
L 295.964785 -246.385114 
L 313.051866 -252.138202 
L 330.138947 -249.952968 
L 347.226029 -249.620524 
L 364.31311 -245.015004 
L 381.400191 -263.954325 
L 398.487273 -269.974933 
L 398.487273 -285.337047 
L 398.487273 -285.337047 
L 381.400191 -277.844901 
L 364.31311 -292.032 
L 347.226029 -284.066602 
L 330.138947 -268.836228 
L 313.051866 -271.400183 
L 295.964785 -269.898487 
L 278.877703 -267.990016 
L 261.790622 -263.457775 
L 244.703541 -273.096342 
L 227.616459 -263.378743 
L 210.529378 -256.079518 
L 193.442297 -245.298544 
L 176.355215 -238.597695 
L 159.268134 -231.411187 
L 142.181053 -217.794267 
L 125.093971 -216.611704 
L 108.00689 -187.880515 
L 90.919809 -182.370365 
L 73.832727 -160.28525 
z
" style="stroke: #008000; stroke-opacity: 0.2"/>
    </defs>
    <g clip-path="url(#p1158d20355)">
     <use xlink:href="#m903ec032bf" x="0" y="345.6" style="fill: #008000; fill-opacity: 0.2; stroke: #008000; stroke-opacity: 0.2"/>
    </g>
   </g>
   <g id="PolyCollection_3">
    <defs>
     <path id="mbcfb84a0c7" d="M 73.832727 -141.503158 
L 73.832727 -50.112 
L 90.919809 -88.529918 
L 108.00689 -116.880878 
L 125.093971 -134.507149 
L 142.181053 -186.969109 
L 159.268134 -193.432083 
L 176.355215 -114.114559 
L 193.442297 -202.386357 
L 210.529378 -224.017969 
L 227.616459 -209.594189 
L 244.703541 -224.172958 
L 261.790622 -227.333742 
L 278.877703 -240.246709 
L 295.964785 -235.5821 
L 313.051866 -242.780039 
L 330.138947 -239.27231 
L 347.226029 -250.988755 
L 364.31311 -248.078136 
L 381.400191 -257.056423 
L 398.487273 -257.326561 
L 398.487273 -282.267116 
L 398.487273 -282.267116 
L 381.400191 -281.922641 
L 364.31311 -278.200368 
L 347.226029 -275.188386 
L 330.138947 -279.172544 
L 313.051866 -281.313042 
L 295.964785 -276.98267 
L 278.877703 -267.714897 
L 261.790622 -271.924585 
L 244.703541 -267.930477 
L 227.616459 -250.399489 
L 210.529378 -252.266535 
L 193.442297 -239.555824 
L 176.355215 -246.375972 
L 159.268134 -225.334927 
L 142.181053 -203.501998 
L 125.093971 -199.755457 
L 108.00689 -181.397649 
L 90.919809 -156.477715 
L 73.832727 -141.503158 
z
" style="stroke: #ff0000; stroke-opacity: 0.2"/>
    </defs>
    <g clip-path="url(#p1158d20355)">
     <use xlink:href="#mbcfb84a0c7" x="0" y="345.6" style="fill: #ff0000; fill-opacity: 0.2; stroke: #ff0000; stroke-opacity: 0.2"/>
    </g>
   </g>
   <g id="matplotlib.axis_1">
    <g id="xtick_1">
     <g id="line2d_1">
      <path d="M 73.832727 307.584 
L 73.832727 41.472 
" clip-path="url(#p1158d20355)" style="fill: none; stroke: #b0b0b0; stroke-opacity: 0.2; stroke-width: 0.8; stroke-linecap: square"/>
     </g>
     <g id="line2d_2">
      <defs>
       <path id="m0f193508e7" d="M 0 0 
L 0 3.5 
" style="stroke: #000000; stroke-width: 0.8"/>
      </defs>
      <g>
       <use xlink:href="#m0f193508e7" x="73.832727" y="307.584" style="stroke: #000000; stroke-width: 0.8"/>
      </g>
     </g>
     <g id="text_1">
      <!-- 1 -->
      <g transform="translate(71.332727 321.413687)scale(0.1 -0.1)">
       <defs>
        <path id="NimbusRoman-Regular-31" d="M 755 0 
L 2522 0 
L 2522 96 
C 2029 96 1920 166 1914 474 
L 1914 4314 
L 1862 4326 
L 710 3744 
L 710 3654 
C 960 3750 1114 3795 1171 3795 
C 1306 3795 1363 3699 1363 3494 
L 1363 595 
C 1350 192 1242 102 755 96 
L 755 0 
z
" transform="scale(0.015625)"/>
       </defs>
       <use xlink:href="#NimbusRoman-Regular-31"/>
      </g>
     </g>
    </g>
    <g id="xtick_2">
     <g id="line2d_3">
      <path d="M 90.919809 307.584 
L 90.919809 41.472 
" clip-path="url(#p1158d20355)" style="fill: none; stroke: #b0b0b0; stroke-opacity: 0.2; stroke-width: 0.8; stroke-linecap: square"/>
     </g>
     <g id="line2d_4">
      <g>
       <use xlink:href="#m0f193508e7" x="90.919809" y="307.584" style="stroke: #000000; stroke-width: 0.8"/>
      </g>
     </g>
     <g id="text_2">
      <!-- 2 -->
      <g transform="translate(88.419809 321.413687)scale(0.1 -0.1)">
       <defs>
        <path id="NimbusRoman-Regular-32" d="M 3040 877 
L 2957 909 
C 2720 538 2650 493 2349 486 
L 819 486 
L 1894 1613 
C 2464 2208 2714 2694 2714 3194 
C 2714 3834 2195 4326 1530 4326 
C 1178 4326 845 4186 608 3930 
C 403 3712 307 3507 198 3053 
L 333 3021 
C 589 3648 813 3853 1261 3853 
C 1805 3853 2163 3488 2163 2950 
C 2163 2445 1869 1856 1331 1286 
L 192 77 
L 192 0 
L 2688 0 
L 3040 877 
z
" transform="scale(0.015625)"/>
       </defs>
       <use xlink:href="#NimbusRoman-Regular-32"/>
      </g>
     </g>
    </g>
    <g id="xtick_3">
     <g id="line2d_5">
      <path d="M 108.00689 307.584 
L 108.00689 41.472 
" clip-path="url(#p1158d20355)" style="fill: none; stroke: #b0b0b0; stroke-opacity: 0.2; stroke-width: 0.8; stroke-linecap: square"/>
     </g>
     <g id="line2d_6">
      <g>
       <use xlink:href="#m0f193508e7" x="108.00689" y="307.584" style="stroke: #000000; stroke-width: 0.8"/>
      </g>
     </g>
     <g id="text_3">
      <!-- 3 -->
      <g transform="translate(105.50689 321.413687)scale(0.1 -0.1)">
       <defs>
        <path id="NimbusRoman-Regular-33" d="M 979 2112 
C 1357 2112 1504 2099 1651 2042 
C 2054 1894 2298 1536 2298 1094 
C 2298 550 1939 141 1466 141 
C 1286 141 1158 186 922 339 
C 736 454 627 499 518 499 
C 371 499 275 410 275 275 
C 275 51 550 -90 998 -90 
C 1485 -90 1990 77 2298 339 
C 2598 602 2758 973 2758 1402 
C 2758 1734 2656 2029 2477 2227 
C 2342 2368 2221 2445 1946 2566 
C 2381 2867 2541 3104 2541 3450 
C 2541 3974 2138 4326 1542 4326 
C 1222 4326 941 4218 710 4013 
C 518 3834 422 3674 288 3290 
L 384 3264 
C 640 3738 928 3942 1331 3942 
C 1754 3942 2035 3667 2035 3258 
C 2035 3027 1939 2803 1779 2637 
C 1587 2445 1408 2349 973 2195 
L 979 2112 
z
" transform="scale(0.015625)"/>
       </defs>
       <use xlink:href="#NimbusRoman-Regular-33"/>
      </g>
     </g>
    </g>
    <g id="xtick_4">
     <g id="line2d_7">
      <path d="M 125.093971 307.584 
L 125.093971 41.472 
" clip-path="url(#p1158d20355)" style="fill: none; stroke: #b0b0b0; stroke-opacity: 0.2; stroke-width: 0.8; stroke-linecap: square"/>
     </g>
     <g id="line2d_8">
      <g>
       <use xlink:href="#m0f193508e7" x="125.093971" y="307.584" style="stroke: #000000; stroke-width: 0.8"/>
      </g>
     </g>
     <g id="text_4">
      <!-- 4 -->
      <g transform="translate(122.593971 321.413687)scale(0.1 -0.1)">
       <defs>
        <path id="NimbusRoman-Regular-34" d="M 3021 1478 
L 2368 1478 
L 2368 4326 
L 2086 4326 
L 77 1478 
L 77 1069 
L 1875 1069 
L 1875 0 
L 2368 0 
L 2368 1069 
L 3021 1069 
L 3021 1478 
z
M 1869 1478 
L 333 1478 
L 1869 3674 
L 1869 1478 
z
" transform="scale(0.015625)"/>
       </defs>
       <use xlink:href="#NimbusRoman-Regular-34"/>
      </g>
     </g>
    </g>
    <g id="xtick_5">
     <g id="line2d_9">
      <path d="M 142.181053 307.584 
L 142.181053 41.472 
" clip-path="url(#p1158d20355)" style="fill: none; stroke: #b0b0b0; stroke-opacity: 0.2; stroke-width: 0.8; stroke-linecap: square"/>
     </g>
     <g id="line2d_10">
      <g>
       <use xlink:href="#m0f193508e7" x="142.181053" y="307.584" style="stroke: #000000; stroke-width: 0.8"/>
      </g>
     </g>
     <g id="text_5">
      <!-- 5 -->
      <g transform="translate(139.681053 321.413687)scale(0.1 -0.1)">
       <defs>
        <path id="NimbusRoman-Regular-35" d="M 1158 3731 
L 2413 3731 
C 2522 3731 2541 3738 2560 3789 
L 2803 4358 
L 2746 4403 
C 2650 4275 2592 4237 2451 4237 
L 1114 4237 
L 416 2720 
C 410 2707 410 2701 410 2688 
C 410 2650 435 2637 486 2637 
C 691 2637 941 2592 1210 2509 
C 1946 2272 2278 1882 2278 1242 
C 2278 627 1894 147 1389 147 
C 1261 147 1158 192 966 333 
C 762 486 621 544 474 544 
C 294 544 205 467 205 307 
C 205 64 499 -90 986 -90 
C 1517 -90 1978 83 2304 410 
C 2592 698 2726 1062 2726 1549 
C 2726 2010 2605 2304 2291 2624 
C 2010 2906 1645 3053 890 3187 
L 1158 3731 
z
" transform="scale(0.015625)"/>
       </defs>
       <use xlink:href="#NimbusRoman-Regular-35"/>
      </g>
     </g>
    </g>
    <g id="xtick_6">
     <g id="line2d_11">
      <path d="M 159.268134 307.584 
L 159.268134 41.472 
" clip-path="url(#p1158d20355)" style="fill: none; stroke: #b0b0b0; stroke-opacity: 0.2; stroke-width: 0.8; stroke-linecap: square"/>
     </g>
     <g id="line2d_12">
      <g>
       <use xlink:href="#m0f193508e7" x="159.268134" y="307.584" style="stroke: #000000; stroke-width: 0.8"/>
      </g>
     </g>
     <g id="text_6">
      <!-- 6 -->
      <g transform="translate(156.768134 321.413687)scale(0.1 -0.1)">
       <defs>
        <path id="NimbusRoman-Regular-36" d="M 2854 4378 
C 2125 4314 1754 4192 1286 3866 
C 595 3373 218 2643 218 1786 
C 218 1229 390 666 666 346 
C 909 64 1254 -90 1651 -90 
C 2445 -90 2995 518 2995 1402 
C 2995 2227 2534 2739 1786 2739 
C 1504 2739 1376 2694 973 2451 
C 1146 3418 1862 4109 2867 4275 
L 2854 4378 
z
M 1549 2445 
C 2106 2445 2419 1984 2419 1184 
C 2419 480 2170 90 1722 90 
C 1158 90 813 691 813 1683 
C 813 2010 864 2189 992 2285 
C 1126 2387 1325 2445 1549 2445 
z
" transform="scale(0.015625)"/>
       </defs>
       <use xlink:href="#NimbusRoman-Regular-36"/>
      </g>
     </g>
    </g>
    <g id="xtick_7">
     <g id="line2d_13">
      <path d="M 176.355215 307.584 
L 176.355215 41.472 
" clip-path="url(#p1158d20355)" style="fill: none; stroke: #b0b0b0; stroke-opacity: 0.2; stroke-width: 0.8; stroke-linecap: square"/>
     </g>
     <g id="line2d_14">
      <g>
       <use xlink:href="#m0f193508e7" x="176.355215" y="307.584" style="stroke: #000000; stroke-width: 0.8"/>
      </g>
     </g>
     <g id="text_7">
      <!-- 7 -->
      <g transform="translate(173.855215 321.413687)scale(0.1 -0.1)">
       <defs>
        <path id="NimbusRoman-Regular-37" d="M 2874 4237 
L 506 4237 
L 128 3296 
L 237 3245 
C 499 3674 621 3757 979 3763 
L 2368 3763 
L 1101 -51 
L 1517 -51 
L 2874 4134 
L 2874 4237 
z
" transform="scale(0.015625)"/>
       </defs>
       <use xlink:href="#NimbusRoman-Regular-37"/>
      </g>
     </g>
    </g>
    <g id="xtick_8">
     <g id="line2d_15">
      <path d="M 193.442297 307.584 
L 193.442297 41.472 
" clip-path="url(#p1158d20355)" style="fill: none; stroke: #b0b0b0; stroke-opacity: 0.2; stroke-width: 0.8; stroke-linecap: square"/>
     </g>
     <g id="line2d_16">
      <g>
       <use xlink:href="#m0f193508e7" x="193.442297" y="307.584" style="stroke: #000000; stroke-width: 0.8"/>
      </g>
     </g>
     <g id="text_8">
      <!-- 8 -->
      <g transform="translate(190.942297 321.413687)scale(0.1 -0.1)">
       <defs>
        <path id="NimbusRoman-Regular-38" d="M 1856 2374 
C 2496 2720 2714 2982 2714 3418 
C 2714 3949 2259 4326 1613 4326 
C 915 4326 397 3898 397 3315 
C 397 2899 518 2714 1190 2125 
C 493 1594 358 1408 358 966 
C 358 339 858 -90 1587 -90 
C 2355 -90 2848 333 2848 992 
C 2848 1485 2630 1792 1856 2374 
z
M 1741 1715 
C 2208 1382 2362 1152 2362 794 
C 2362 378 2074 90 1658 90 
C 1171 90 845 461 845 1011 
C 845 1427 979 1690 1357 1997 
L 1741 1715 
z
M 1670 2490 
C 1101 2861 870 3155 870 3514 
C 870 3885 1158 4147 1562 4147 
C 1997 4147 2272 3866 2272 3424 
C 2272 3034 2106 2778 1670 2490 
z
" transform="scale(0.015625)"/>
       </defs>
       <use xlink:href="#NimbusRoman-Regular-38"/>
      </g>
     </g>
    </g>
    <g id="xtick_9">
     <g id="line2d_17">
      <path d="M 210.529378 307.584 
L 210.529378 41.472 
" clip-path="url(#p1158d20355)" style="fill: none; stroke: #b0b0b0; stroke-opacity: 0.2; stroke-width: 0.8; stroke-linecap: square"/>
     </g>
     <g id="line2d_18">
      <g>
       <use xlink:href="#m0f193508e7" x="210.529378" y="307.584" style="stroke: #000000; stroke-width: 0.8"/>
      </g>
     </g>
     <g id="text_9">
      <!-- 9 -->
      <g transform="translate(208.029378 321.413687)scale(0.1 -0.1)">
       <defs>
        <path id="NimbusRoman-Regular-39" d="M 378 -141 
C 1094 -58 1446 64 1882 378 
C 2547 864 2938 1658 2938 2522 
C 2938 3578 2355 4326 1523 4326 
C 762 4326 192 3680 192 2816 
C 192 2035 653 1517 1344 1517 
C 1696 1517 1965 1619 2304 1882 
C 2042 838 1331 154 358 -13 
L 378 -141 
z
M 2317 2272 
C 2317 2144 2291 2086 2221 2029 
C 2048 1882 1805 1792 1574 1792 
C 1088 1792 781 2272 781 3034 
C 781 3398 883 3782 1018 3949 
C 1126 4077 1286 4147 1472 4147 
C 2029 4147 2317 3597 2317 2522 
L 2317 2272 
z
" transform="scale(0.015625)"/>
       </defs>
       <use xlink:href="#NimbusRoman-Regular-39"/>
      </g>
     </g>
    </g>
    <g id="xtick_10">
     <g id="line2d_19">
      <path d="M 227.616459 307.584 
L 227.616459 41.472 
" clip-path="url(#p1158d20355)" style="fill: none; stroke: #b0b0b0; stroke-opacity: 0.2; stroke-width: 0.8; stroke-linecap: square"/>
     </g>
     <g id="line2d_20">
      <g>
       <use xlink:href="#m0f193508e7" x="227.616459" y="307.584" style="stroke: #000000; stroke-width: 0.8"/>
      </g>
     </g>
     <g id="text_10">
      <!-- 10 -->
      <g transform="translate(222.616459 321.413687)scale(0.1 -0.1)">
       <defs>
        <path id="NimbusRoman-Regular-30" d="M 1626 4326 
C 1274 4326 1005 4224 768 3994 
C 397 3635 154 2899 154 2150 
C 154 1446 365 704 666 346 
C 902 64 1229 -90 1600 -90 
C 1926 -90 2202 19 2432 243 
C 2803 595 3046 1338 3046 2112 
C 3046 3424 2464 4326 1626 4326 
z
M 1606 4160 
C 2144 4160 2432 3437 2432 2099 
C 2432 762 2150 77 1600 77 
C 1050 77 768 762 768 2093 
C 768 3456 1056 4160 1606 4160 
z
" transform="scale(0.015625)"/>
       </defs>
       <use xlink:href="#NimbusRoman-Regular-31"/>
       <use xlink:href="#NimbusRoman-Regular-30" x="49.999985"/>
      </g>
     </g>
    </g>
    <g id="xtick_11">
     <g id="line2d_21">
      <path d="M 244.703541 307.584 
L 244.703541 41.472 
" clip-path="url(#p1158d20355)" style="fill: none; stroke: #b0b0b0; stroke-opacity: 0.2; stroke-width: 0.8; stroke-linecap: square"/>
     </g>
     <g id="line2d_22">
      <g>
       <use xlink:href="#m0f193508e7" x="244.703541" y="307.584" style="stroke: #000000; stroke-width: 0.8"/>
      </g>
     </g>
     <g id="text_11">
      <!-- 11 -->
      <g transform="translate(239.703541 321.413687)scale(0.1 -0.1)">
       <use xlink:href="#NimbusRoman-Regular-31"/>
       <use xlink:href="#NimbusRoman-Regular-31" x="49.999985"/>
      </g>
     </g>
    </g>
    <g id="xtick_12">
     <g id="line2d_23">
      <path d="M 261.790622 307.584 
L 261.790622 41.472 
" clip-path="url(#p1158d20355)" style="fill: none; stroke: #b0b0b0; stroke-opacity: 0.2; stroke-width: 0.8; stroke-linecap: square"/>
     </g>
     <g id="line2d_24">
      <g>
       <use xlink:href="#m0f193508e7" x="261.790622" y="307.584" style="stroke: #000000; stroke-width: 0.8"/>
      </g>
     </g>
     <g id="text_12">
      <!-- 12 -->
      <g transform="translate(256.790622 321.413687)scale(0.1 -0.1)">
       <use xlink:href="#NimbusRoman-Regular-31"/>
       <use xlink:href="#NimbusRoman-Regular-32" x="49.999985"/>
      </g>
     </g>
    </g>
    <g id="xtick_13">
     <g id="line2d_25">
      <path d="M 278.877703 307.584 
L 278.877703 41.472 
" clip-path="url(#p1158d20355)" style="fill: none; stroke: #b0b0b0; stroke-opacity: 0.2; stroke-width: 0.8; stroke-linecap: square"/>
     </g>
     <g id="line2d_26">
      <g>
       <use xlink:href="#m0f193508e7" x="278.877703" y="307.584" style="stroke: #000000; stroke-width: 0.8"/>
      </g>
     </g>
     <g id="text_13">
      <!-- 13 -->
      <g transform="translate(273.877703 321.413687)scale(0.1 -0.1)">
       <use xlink:href="#NimbusRoman-Regular-31"/>
       <use xlink:href="#NimbusRoman-Regular-33" x="49.999985"/>
      </g>
     </g>
    </g>
    <g id="xtick_14">
     <g id="line2d_27">
      <path d="M 295.964785 307.584 
L 295.964785 41.472 
" clip-path="url(#p1158d20355)" style="fill: none; stroke: #b0b0b0; stroke-opacity: 0.2; stroke-width: 0.8; stroke-linecap: square"/>
     </g>
     <g id="line2d_28">
      <g>
       <use xlink:href="#m0f193508e7" x="295.964785" y="307.584" style="stroke: #000000; stroke-width: 0.8"/>
      </g>
     </g>
     <g id="text_14">
      <!-- 14 -->
      <g transform="translate(290.964785 321.413687)scale(0.1 -0.1)">
       <use xlink:href="#NimbusRoman-Regular-31"/>
       <use xlink:href="#NimbusRoman-Regular-34" x="49.999985"/>
      </g>
     </g>
    </g>
    <g id="xtick_15">
     <g id="line2d_29">
      <path d="M 313.051866 307.584 
L 313.051866 41.472 
" clip-path="url(#p1158d20355)" style="fill: none; stroke: #b0b0b0; stroke-opacity: 0.2; stroke-width: 0.8; stroke-linecap: square"/>
     </g>
     <g id="line2d_30">
      <g>
       <use xlink:href="#m0f193508e7" x="313.051866" y="307.584" style="stroke: #000000; stroke-width: 0.8"/>
      </g>
     </g>
     <g id="text_15">
      <!-- 15 -->
      <g transform="translate(308.051866 321.413687)scale(0.1 -0.1)">
       <use xlink:href="#NimbusRoman-Regular-31"/>
       <use xlink:href="#NimbusRoman-Regular-35" x="49.999985"/>
      </g>
     </g>
    </g>
    <g id="xtick_16">
     <g id="line2d_31">
      <path d="M 330.138947 307.584 
L 330.138947 41.472 
" clip-path="url(#p1158d20355)" style="fill: none; stroke: #b0b0b0; stroke-opacity: 0.2; stroke-width: 0.8; stroke-linecap: square"/>
     </g>
     <g id="line2d_32">
      <g>
       <use xlink:href="#m0f193508e7" x="330.138947" y="307.584" style="stroke: #000000; stroke-width: 0.8"/>
      </g>
     </g>
     <g id="text_16">
      <!-- 16 -->
      <g transform="translate(325.138947 321.413687)scale(0.1 -0.1)">
       <use xlink:href="#NimbusRoman-Regular-31"/>
       <use xlink:href="#NimbusRoman-Regular-36" x="49.999985"/>
      </g>
     </g>
    </g>
    <g id="xtick_17">
     <g id="line2d_33">
      <path d="M 347.226029 307.584 
L 347.226029 41.472 
" clip-path="url(#p1158d20355)" style="fill: none; stroke: #b0b0b0; stroke-opacity: 0.2; stroke-width: 0.8; stroke-linecap: square"/>
     </g>
     <g id="line2d_34">
      <g>
       <use xlink:href="#m0f193508e7" x="347.226029" y="307.584" style="stroke: #000000; stroke-width: 0.8"/>
      </g>
     </g>
     <g id="text_17">
      <!-- 17 -->
      <g transform="translate(342.226029 321.413687)scale(0.1 -0.1)">
       <use xlink:href="#NimbusRoman-Regular-31"/>
       <use xlink:href="#NimbusRoman-Regular-37" x="49.999985"/>
      </g>
     </g>
    </g>
    <g id="xtick_18">
     <g id="line2d_35">
      <path d="M 364.31311 307.584 
L 364.31311 41.472 
" clip-path="url(#p1158d20355)" style="fill: none; stroke: #b0b0b0; stroke-opacity: 0.2; stroke-width: 0.8; stroke-linecap: square"/>
     </g>
     <g id="line2d_36">
      <g>
       <use xlink:href="#m0f193508e7" x="364.31311" y="307.584" style="stroke: #000000; stroke-width: 0.8"/>
      </g>
     </g>
     <g id="text_18">
      <!-- 18 -->
      <g transform="translate(359.31311 321.413687)scale(0.1 -0.1)">
       <use xlink:href="#NimbusRoman-Regular-31"/>
       <use xlink:href="#NimbusRoman-Regular-38" x="49.999985"/>
      </g>
     </g>
    </g>
    <g id="xtick_19">
     <g id="line2d_37">
      <path d="M 381.400191 307.584 
L 381.400191 41.472 
" clip-path="url(#p1158d20355)" style="fill: none; stroke: #b0b0b0; stroke-opacity: 0.2; stroke-width: 0.8; stroke-linecap: square"/>
     </g>
     <g id="line2d_38">
      <g>
       <use xlink:href="#m0f193508e7" x="381.400191" y="307.584" style="stroke: #000000; stroke-width: 0.8"/>
      </g>
     </g>
     <g id="text_19">
      <!-- 19 -->
      <g transform="translate(376.400191 321.413687)scale(0.1 -0.1)">
       <use xlink:href="#NimbusRoman-Regular-31"/>
       <use xlink:href="#NimbusRoman-Regular-39" x="49.999985"/>
      </g>
     </g>
    </g>
    <g id="xtick_20">
     <g id="line2d_39">
      <path d="M 398.487273 307.584 
L 398.487273 41.472 
" clip-path="url(#p1158d20355)" style="fill: none; stroke: #b0b0b0; stroke-opacity: 0.2; stroke-width: 0.8; stroke-linecap: square"/>
     </g>
     <g id="line2d_40">
      <g>
       <use xlink:href="#m0f193508e7" x="398.487273" y="307.584" style="stroke: #000000; stroke-width: 0.8"/>
      </g>
     </g>
     <g id="text_20">
      <!-- 20 -->
      <g transform="translate(393.487273 321.413687)scale(0.1 -0.1)">
       <use xlink:href="#NimbusRoman-Regular-32"/>
       <use xlink:href="#NimbusRoman-Regular-30" x="49.999985"/>
      </g>
     </g>
    </g>
    <g id="text_21">
     <!-- Iteration -->
     <g transform="translate(219.220156 334.413687)scale(0.1 -0.1)">
      <defs>
       <path id="NimbusRoman-Regular-49" d="M 115 0 
L 2016 0 
L 2016 122 
C 1491 134 1402 224 1389 698 
L 1389 3539 
C 1402 4019 1485 4096 2016 4115 
L 2016 4237 
L 115 4237 
L 115 4115 
C 659 4083 730 4019 736 3539 
L 736 698 
C 730 211 653 141 115 122 
L 115 0 
z
" transform="scale(0.015625)"/>
       <path id="NimbusRoman-Regular-74" d="M 1632 2880 
L 986 2880 
L 986 3622 
C 986 3686 973 3706 941 3706 
C 570 3168 378 2950 192 2842 
C 122 2797 83 2758 83 2720 
C 83 2701 90 2688 109 2675 
L 448 2675 
L 448 749 
C 448 211 640 -64 1018 -64 
C 1331 -64 1574 90 1786 422 
L 1702 493 
C 1562 326 1459 269 1318 269 
C 1082 269 986 442 986 845 
L 986 2675 
L 1632 2675 
L 1632 2880 
z
" transform="scale(0.015625)"/>
       <path id="NimbusRoman-Regular-65" d="M 2611 1050 
C 2304 563 2029 378 1619 378 
C 1254 378 979 563 794 928 
C 678 1171 634 1376 621 1773 
L 2592 1773 
C 2541 2189 2477 2374 2317 2579 
C 2125 2810 1830 2944 1498 2944 
C 1178 2944 877 2829 634 2611 
C 333 2349 160 1894 160 1370 
C 160 486 621 -64 1357 -64 
C 1965 -64 2445 314 2714 1005 
L 2611 1050 
z
M 634 1978 
C 704 2477 922 2714 1312 2714 
C 1702 2714 1856 2534 1939 1978 
L 634 1978 
z
" transform="scale(0.015625)"/>
       <path id="NimbusRoman-Regular-72" d="M 32 0 
L 1568 0 
L 1568 96 
C 1139 109 1037 198 1024 576 
L 1024 2016 
C 1024 2221 1293 2541 1472 2541 
C 1510 2541 1568 2509 1638 2445 
C 1734 2349 1811 2317 1894 2317 
C 2048 2317 2144 2426 2144 2605 
C 2144 2816 2010 2944 1792 2944 
C 1523 2944 1344 2803 1024 2342 
L 1024 2931 
L 992 2944 
C 634 2803 403 2714 45 2598 
L 45 2496 
C 134 2515 192 2522 269 2522 
C 429 2522 486 2419 486 2138 
L 486 538 
C 474 205 435 166 32 96 
L 32 0 
z
" transform="scale(0.015625)"/>
       <path id="NimbusRoman-Regular-61" d="M 2829 422 
C 2720 333 2643 301 2547 301 
C 2400 301 2355 390 2355 672 
L 2355 1920 
C 2355 2253 2323 2438 2227 2592 
C 2086 2822 1811 2944 1434 2944 
C 832 2944 358 2630 358 2227 
C 358 2080 480 1952 634 1952 
C 787 1952 922 2080 922 2221 
C 922 2246 915 2278 909 2323 
C 896 2381 890 2432 890 2477 
C 890 2650 1094 2790 1350 2790 
C 1664 2790 1837 2605 1837 2259 
L 1837 1869 
C 858 1478 742 1421 467 1178 
C 326 1050 237 832 237 621 
C 237 218 518 -64 909 -64 
C 1190 -64 1453 70 1843 403 
C 1875 64 1990 -64 2253 -64 
C 2470 -64 2605 13 2829 256 
L 2829 422 
z
M 1837 787 
C 1837 595 1805 525 1670 448 
C 1510 358 1338 307 1203 307 
C 979 307 800 525 800 800 
L 800 826 
C 806 1210 1088 1453 1837 1715 
L 1837 787 
z
" transform="scale(0.015625)"/>
       <path id="NimbusRoman-Regular-69" d="M 102 0 
L 1619 0 
L 1619 96 
C 1197 128 1152 186 1146 653 
L 1146 2925 
L 1120 2944 
L 128 2592 
L 128 2496 
L 179 2502 
C 256 2515 333 2522 397 2522 
C 550 2522 608 2419 608 2138 
L 608 653 
C 595 179 538 115 102 96 
L 102 0 
z
M 819 4371 
C 646 4371 499 4224 499 4045 
C 499 3859 640 3718 819 3718 
C 1011 3718 1152 3859 1152 4045 
C 1152 4230 1005 4371 819 4371 
z
" transform="scale(0.015625)"/>
       <path id="NimbusRoman-Regular-6f" d="M 1600 2944 
C 762 2944 186 2330 186 1446 
C 186 576 781 -64 1587 -64 
C 2394 -64 3008 608 3008 1498 
C 3008 2342 2419 2944 1600 2944 
z
M 1517 2765 
C 2054 2765 2432 2150 2432 1274 
C 2432 544 2144 115 1664 115 
C 1414 115 1178 269 1043 525 
C 864 858 762 1306 762 1760 
C 762 2368 1056 2765 1517 2765 
z
" transform="scale(0.015625)"/>
       <path id="NimbusRoman-Regular-6e" d="M 115 0 
L 1472 0 
L 1472 96 
C 1152 115 1050 198 1050 429 
L 1050 2227 
C 1357 2515 1498 2592 1709 2592 
C 2022 2592 2176 2394 2176 1971 
L 2176 634 
C 2163 218 2086 115 1773 96 
L 1773 0 
L 3104 0 
L 3104 96 
C 2790 128 2720 205 2714 518 
L 2714 1984 
C 2714 2586 2432 2944 1958 2944 
C 1664 2944 1466 2835 1030 2426 
L 1030 2931 
L 986 2944 
C 653 2822 435 2752 102 2656 
L 102 2547 
C 147 2566 205 2573 275 2573 
C 454 2573 512 2477 512 2163 
L 512 576 
C 506 198 435 115 115 96 
L 115 0 
z
" transform="scale(0.015625)"/>
      </defs>
      <use xlink:href="#NimbusRoman-Regular-49"/>
      <use xlink:href="#NimbusRoman-Regular-74" x="33.299988"/>
      <use xlink:href="#NimbusRoman-Regular-65" x="61.099976"/>
      <use xlink:href="#NimbusRoman-Regular-72" x="105.499969"/>
      <use xlink:href="#NimbusRoman-Regular-61" x="138.799957"/>
      <use xlink:href="#NimbusRoman-Regular-74" x="183.199951"/>
      <use xlink:href="#NimbusRoman-Regular-69" x="210.999939"/>
      <use xlink:href="#NimbusRoman-Regular-6f" x="238.799927"/>
      <use xlink:href="#NimbusRoman-Regular-6e" x="288.799911"/>
     </g>
    </g>
   </g>
   <g id="matplotlib.axis_2">
    <g id="ytick_1">
     <g id="line2d_41">
      <path d="M 57.6 299.710031 
L 414.72 299.710031 
" clip-path="url(#p1158d20355)" style="fill: none; stroke: #b0b0b0; stroke-opacity: 0.2; stroke-width: 0.8; stroke-linecap: square"/>
     </g>
     <g id="line2d_42">
      <defs>
       <path id="ma20f9df6c9" d="M 0 0 
L -3.5 0 
" style="stroke: #000000; stroke-width: 0.8"/>
      </defs>
      <g>
       <use xlink:href="#ma20f9df6c9" x="57.6" y="299.710031" style="stroke: #000000; stroke-width: 0.8"/>
      </g>
     </g>
     <g id="text_22">
      <!-- 0.54 -->
      <g transform="translate(33.1 303.124874)scale(0.1 -0.1)">
       <defs>
        <path id="NimbusRoman-Regular-2e" d="M 800 640 
C 608 640 448 480 448 275 
C 448 90 608 -70 794 -70 
C 992 -70 1158 83 1158 275 
C 1158 474 992 640 800 640 
z
" transform="scale(0.015625)"/>
       </defs>
       <use xlink:href="#NimbusRoman-Regular-30"/>
       <use xlink:href="#NimbusRoman-Regular-2e" x="49.999985"/>
       <use xlink:href="#NimbusRoman-Regular-35" x="74.999969"/>
       <use xlink:href="#NimbusRoman-Regular-34" x="124.999954"/>
      </g>
     </g>
    </g>
    <g id="ytick_2">
     <g id="line2d_43">
      <path d="M 57.6 264.515653 
L 414.72 264.515653 
" clip-path="url(#p1158d20355)" style="fill: none; stroke: #b0b0b0; stroke-opacity: 0.2; stroke-width: 0.8; stroke-linecap: square"/>
     </g>
     <g id="line2d_44">
      <g>
       <use xlink:href="#ma20f9df6c9" x="57.6" y="264.515653" style="stroke: #000000; stroke-width: 0.8"/>
      </g>
     </g>
     <g id="text_23">
      <!-- 0.56 -->
      <g transform="translate(33.1 267.930497)scale(0.1 -0.1)">
       <use xlink:href="#NimbusRoman-Regular-30"/>
       <use xlink:href="#NimbusRoman-Regular-2e" x="49.999985"/>
       <use xlink:href="#NimbusRoman-Regular-35" x="74.999969"/>
       <use xlink:href="#NimbusRoman-Regular-36" x="124.999954"/>
      </g>
     </g>
    </g>
    <g id="ytick_3">
     <g id="line2d_45">
      <path d="M 57.6 229.321276 
L 414.72 229.321276 
" clip-path="url(#p1158d20355)" style="fill: none; stroke: #b0b0b0; stroke-opacity: 0.2; stroke-width: 0.8; stroke-linecap: square"/>
     </g>
     <g id="line2d_46">
      <g>
       <use xlink:href="#ma20f9df6c9" x="57.6" y="229.321276" style="stroke: #000000; stroke-width: 0.8"/>
      </g>
     </g>
     <g id="text_24">
      <!-- 0.58 -->
      <g transform="translate(33.1 232.736119)scale(0.1 -0.1)">
       <use xlink:href="#NimbusRoman-Regular-30"/>
       <use xlink:href="#NimbusRoman-Regular-2e" x="49.999985"/>
       <use xlink:href="#NimbusRoman-Regular-35" x="74.999969"/>
       <use xlink:href="#NimbusRoman-Regular-38" x="124.999954"/>
      </g>
     </g>
    </g>
    <g id="ytick_4">
     <g id="line2d_47">
      <path d="M 57.6 194.126898 
L 414.72 194.126898 
" clip-path="url(#p1158d20355)" style="fill: none; stroke: #b0b0b0; stroke-opacity: 0.2; stroke-width: 0.8; stroke-linecap: square"/>
     </g>
     <g id="line2d_48">
      <g>
       <use xlink:href="#ma20f9df6c9" x="57.6" y="194.126898" style="stroke: #000000; stroke-width: 0.8"/>
      </g>
     </g>
     <g id="text_25">
      <!-- 0.60 -->
      <g transform="translate(33.1 197.541742)scale(0.1 -0.1)">
       <use xlink:href="#NimbusRoman-Regular-30"/>
       <use xlink:href="#NimbusRoman-Regular-2e" x="49.999985"/>
       <use xlink:href="#NimbusRoman-Regular-36" x="74.999969"/>
       <use xlink:href="#NimbusRoman-Regular-30" x="124.999954"/>
      </g>
     </g>
    </g>
    <g id="ytick_5">
     <g id="line2d_49">
      <path d="M 57.6 158.932521 
L 414.72 158.932521 
" clip-path="url(#p1158d20355)" style="fill: none; stroke: #b0b0b0; stroke-opacity: 0.2; stroke-width: 0.8; stroke-linecap: square"/>
     </g>
     <g id="line2d_50">
      <g>
       <use xlink:href="#ma20f9df6c9" x="57.6" y="158.932521" style="stroke: #000000; stroke-width: 0.8"/>
      </g>
     </g>
     <g id="text_26">
      <!-- 0.62 -->
      <g transform="translate(33.1 162.347365)scale(0.1 -0.1)">
       <use xlink:href="#NimbusRoman-Regular-30"/>
       <use xlink:href="#NimbusRoman-Regular-2e" x="49.999985"/>
       <use xlink:href="#NimbusRoman-Regular-36" x="74.999969"/>
       <use xlink:href="#NimbusRoman-Regular-32" x="124.999954"/>
      </g>
     </g>
    </g>
    <g id="ytick_6">
     <g id="line2d_51">
      <path d="M 57.6 123.738144 
L 414.72 123.738144 
" clip-path="url(#p1158d20355)" style="fill: none; stroke: #b0b0b0; stroke-opacity: 0.2; stroke-width: 0.8; stroke-linecap: square"/>
     </g>
     <g id="line2d_52">
      <g>
       <use xlink:href="#ma20f9df6c9" x="57.6" y="123.738144" style="stroke: #000000; stroke-width: 0.8"/>
      </g>
     </g>
     <g id="text_27">
      <!-- 0.64 -->
      <g transform="translate(33.1 127.152987)scale(0.1 -0.1)">
       <use xlink:href="#NimbusRoman-Regular-30"/>
       <use xlink:href="#NimbusRoman-Regular-2e" x="49.999985"/>
       <use xlink:href="#NimbusRoman-Regular-36" x="74.999969"/>
       <use xlink:href="#NimbusRoman-Regular-34" x="124.999954"/>
      </g>
     </g>
    </g>
    <g id="ytick_7">
     <g id="line2d_53">
      <path d="M 57.6 88.543766 
L 414.72 88.543766 
" clip-path="url(#p1158d20355)" style="fill: none; stroke: #b0b0b0; stroke-opacity: 0.2; stroke-width: 0.8; stroke-linecap: square"/>
     </g>
     <g id="line2d_54">
      <g>
       <use xlink:href="#ma20f9df6c9" x="57.6" y="88.543766" style="stroke: #000000; stroke-width: 0.8"/>
      </g>
     </g>
     <g id="text_28">
      <!-- 0.66 -->
      <g transform="translate(33.1 91.95861)scale(0.1 -0.1)">
       <use xlink:href="#NimbusRoman-Regular-30"/>
       <use xlink:href="#NimbusRoman-Regular-2e" x="49.999985"/>
       <use xlink:href="#NimbusRoman-Regular-36" x="74.999969"/>
       <use xlink:href="#NimbusRoman-Regular-36" x="124.999954"/>
      </g>
     </g>
    </g>
    <g id="ytick_8">
     <g id="line2d_55">
      <path d="M 57.6 53.349389 
L 414.72 53.349389 
" clip-path="url(#p1158d20355)" style="fill: none; stroke: #b0b0b0; stroke-opacity: 0.2; stroke-width: 0.8; stroke-linecap: square"/>
     </g>
     <g id="line2d_56">
      <g>
       <use xlink:href="#ma20f9df6c9" x="57.6" y="53.349389" style="stroke: #000000; stroke-width: 0.8"/>
      </g>
     </g>
     <g id="text_29">
      <!-- 0.68 -->
      <g transform="translate(33.1 56.764233)scale(0.1 -0.1)">
       <use xlink:href="#NimbusRoman-Regular-30"/>
       <use xlink:href="#NimbusRoman-Regular-2e" x="49.999985"/>
       <use xlink:href="#NimbusRoman-Regular-36" x="74.999969"/>
       <use xlink:href="#NimbusRoman-Regular-38" x="124.999954"/>
      </g>
     </g>
    </g>
    <g id="text_30">
     <!-- Accuracy -->
     <g transform="translate(26.920313 193.68425)rotate(-90)scale(0.1 -0.1)">
      <defs>
       <path id="NimbusRoman-Regular-41" d="M 4518 122 
C 4230 141 4166 205 3942 678 
L 2349 4314 
L 2221 4314 
L 890 1171 
C 480 237 403 134 96 122 
L 96 0 
L 1363 0 
L 1363 122 
C 1056 122 928 198 928 384 
C 928 461 947 550 979 634 
L 1274 1382 
L 2950 1382 
L 3213 768 
C 3290 595 3334 429 3334 339 
C 3334 179 3226 128 2886 122 
L 2886 0 
L 4518 0 
L 4518 122 
z
M 1382 1645 
L 2118 3405 
L 2861 1645 
L 1382 1645 
z
" transform="scale(0.015625)"/>
       <path id="NimbusRoman-Regular-63" d="M 2547 998 
C 2240 550 2010 397 1645 397 
C 1056 397 653 909 653 1645 
C 653 2310 1005 2758 1523 2758 
C 1754 2758 1837 2694 1901 2451 
L 1939 2310 
C 1990 2125 2106 2016 2246 2016 
C 2413 2016 2547 2138 2547 2285 
C 2547 2643 2099 2944 1562 2944 
C 1248 2944 922 2816 659 2586 
C 339 2304 160 1869 160 1357 
C 160 531 666 -64 1376 -64 
C 1664 -64 1920 38 2150 237 
C 2323 384 2445 563 2637 941 
L 2547 998 
z
" transform="scale(0.015625)"/>
       <path id="NimbusRoman-Regular-75" d="M 3066 320 
L 3034 320 
C 2720 333 2675 384 2669 685 
L 2669 2880 
L 1658 2880 
L 1658 2771 
C 2054 2752 2131 2688 2131 2368 
L 2131 864 
C 2131 685 2099 595 2010 525 
C 1837 384 1638 307 1446 307 
C 1197 307 992 525 992 794 
L 992 2880 
L 58 2880 
L 58 2790 
C 358 2778 448 2688 454 2381 
L 454 768 
C 454 262 762 -64 1229 -64 
C 1466 -64 1715 38 1888 211 
L 2163 486 
L 2163 -45 
L 2189 -58 
C 2509 70 2739 141 3066 230 
L 3066 320 
z
" transform="scale(0.015625)"/>
       <path id="NimbusRoman-Regular-79" d="M 3040 2880 
L 2176 2880 
L 2176 2784 
C 2381 2784 2483 2726 2483 2624 
C 2483 2598 2477 2560 2458 2515 
L 1837 749 
L 1101 2368 
C 1062 2458 1037 2547 1037 2611 
C 1037 2726 1133 2771 1408 2784 
L 1408 2880 
L 90 2880 
L 90 2790 
C 256 2765 365 2694 416 2586 
L 1146 1011 
C 1222 838 1229 832 1261 768 
C 1440 448 1542 211 1542 115 
C 1542 13 1395 -378 1286 -576 
C 1190 -736 1056 -858 966 -858 
C 928 -858 870 -845 800 -813 
C 685 -768 570 -742 467 -742 
C 314 -742 192 -864 192 -1024 
C 192 -1235 390 -1395 666 -1395 
C 1101 -1395 1395 -1043 1747 -115 
L 2733 2496 
C 2816 2701 2886 2765 3040 2784 
L 3040 2880 
z
" transform="scale(0.015625)"/>
      </defs>
      <use xlink:href="#NimbusRoman-Regular-41"/>
      <use xlink:href="#NimbusRoman-Regular-63" x="72.199982"/>
      <use xlink:href="#NimbusRoman-Regular-63" x="116.599976"/>
      <use xlink:href="#NimbusRoman-Regular-75" x="160.999969"/>
      <use xlink:href="#NimbusRoman-Regular-72" x="210.999954"/>
      <use xlink:href="#NimbusRoman-Regular-61" x="244.299942"/>
      <use xlink:href="#NimbusRoman-Regular-63" x="288.699936"/>
      <use xlink:href="#NimbusRoman-Regular-79" x="333.09993"/>
     </g>
    </g>
   </g>
   <g id="line2d_57">
    <path d="M 73.832727 205.000254 
L 90.919809 149.51407 
L 108.00689 140.187172 
L 125.093971 136.395788 
L 142.181053 125.899398 
L 159.268134 119.409387 
L 176.355215 110.186931 
L 193.442297 107.482698 
L 210.529378 99.364579 
L 227.616459 97.966353 
L 244.703541 84.261303 
L 261.790622 76.664566 
L 278.877703 76.035663 
L 295.964785 73.465463 
L 313.051866 74.817695 
L 330.138947 70.435131 
L 347.226029 67.99584 
L 364.31311 65.789694 
L 381.400191 64.883352 
L 398.487273 60.355866 
" clip-path="url(#p1158d20355)" style="fill: none; stroke: #800080; stroke-width: 1.5; stroke-linecap: square"/>
   </g>
   <g id="line2d_58">
    <path d="M 73.832727 216.018715 
L 90.919809 184.247281 
L 108.00689 179.839675 
L 125.093971 152.473365 
L 142.181053 145.589847 
L 159.268134 135.869259 
L 176.355215 122.843702 
L 193.442297 112.396799 
L 210.529378 107.201261 
L 227.616459 95.081036 
L 244.703541 93.875565 
L 261.790622 92.948454 
L 278.877703 88.335411 
L 295.964785 87.4582 
L 313.051866 83.830807 
L 330.138947 86.205402 
L 347.226029 78.756437 
L 364.31311 77.076498 
L 381.400191 74.700387 
L 398.487273 67.94401 
" clip-path="url(#p1158d20355)" style="fill: none; stroke: #008000; stroke-width: 1.5; stroke-linecap: square"/>
   </g>
   <g id="line2d_59">
    <path d="M 73.832727 249.792421 
L 90.919809 223.096183 
L 108.00689 196.460736 
L 125.093971 178.468697 
L 142.181053 150.364447 
L 159.268134 136.216495 
L 176.355215 165.354734 
L 193.442297 124.62891 
L 210.529378 107.457748 
L 227.616459 115.603161 
L 244.703541 99.548283 
L 261.790622 95.970837 
L 278.877703 91.619197 
L 295.964785 89.317615 
L 313.051866 83.553459 
L 330.138947 86.377573 
L 347.226029 82.51143 
L 364.31311 82.460748 
L 381.400191 76.110468 
L 398.487273 75.803161 
" clip-path="url(#p1158d20355)" style="fill: none; stroke: #ff0000; stroke-width: 1.5; stroke-linecap: square"/>
   </g>
   <g id="patch_3">
    <path d="M 57.6 307.584 
L 57.6 41.472 
" style="fill: none; stroke: #000000; stroke-width: 0.8; stroke-linejoin: miter; stroke-linecap: square"/>
   </g>
   <g id="patch_4">
    <path d="M 414.72 307.584 
L 414.72 41.472 
" style="fill: none; stroke: #000000; stroke-width: 0.8; stroke-linejoin: miter; stroke-linecap: square"/>
   </g>
   <g id="patch_5">
    <path d="M 57.6 307.584 
L 414.72 307.584 
" style="fill: none; stroke: #000000; stroke-width: 0.8; stroke-linejoin: miter; stroke-linecap: square"/>
   </g>
   <g id="patch_6">
    <path d="M 57.6 41.472 
L 414.72 41.472 
" style="fill: none; stroke: #000000; stroke-width: 0.8; stroke-linejoin: miter; stroke-linecap: square"/>
   </g>
   <g id="legend_1">
    <g id="patch_7">
     <path d="M 64.6 91.992312 
L 247.964063 91.992312 
Q 249.964063 91.992312 249.964063 89.992312 
L 249.964063 48.472 
Q 249.964063 46.472 247.964063 46.472 
L 64.6 46.472 
Q 62.6 46.472 62.6 48.472 
L 62.6 89.992312 
Q 62.6 91.992312 64.6 91.992312 
z
" style="fill: #ffffff; opacity: 0.8; stroke: #cccccc; stroke-linejoin: miter"/>
    </g>
    <g id="line2d_60">
     <path d="M 66.6 53.972 
L 76.6 53.972 
L 86.6 53.972 
" style="fill: none; stroke: #800080; stroke-width: 1.5; stroke-linecap: square"/>
    </g>
    <g id="text_31">
     <!-- LeastConfidenceMedian_1.0_fps -->
     <g transform="translate(94.6 57.472)scale(0.1 -0.1)">
      <defs>
       <path id="NimbusRoman-Regular-4c" d="M 1882 4237 
L 77 4237 
L 77 4115 
C 544 4083 621 4000 634 3539 
L 634 698 
C 621 237 538 147 77 122 
L 77 0 
L 3520 0 
L 3827 1114 
L 3667 1114 
C 3366 442 3091 275 2266 250 
L 1837 250 
C 1344 262 1293 282 1286 512 
L 1286 3539 
C 1299 4006 1382 4090 1882 4115 
L 1882 4237 
z
" transform="scale(0.015625)"/>
       <path id="NimbusRoman-Regular-73" d="M 2016 2010 
L 1990 2886 
L 1920 2886 
C 1888 2835 1856 2816 1818 2816 
C 1779 2816 1715 2829 1645 2861 
C 1498 2912 1350 2944 1197 2944 
C 691 2944 326 2611 326 2150 
C 326 1792 531 1536 1075 1229 
L 1446 1018 
C 1670 890 1779 736 1779 538 
C 1779 256 1574 77 1248 77 
C 806 77 582 320 435 973 
L 333 973 
L 333 -26 
L 416 -26 
C 461 38 486 51 563 51 
C 634 51 710 38 858 0 
C 1030 -38 1197 -64 1325 -64 
C 1824 -64 2227 307 2227 755 
C 2227 1075 2074 1286 1690 1517 
L 998 1926 
C 819 2035 723 2189 723 2362 
C 723 2624 922 2797 1216 2797 
C 1581 2797 1773 2586 1920 2010 
L 2016 2010 
z
" transform="scale(0.015625)"/>
       <path id="NimbusRoman-Regular-43" d="M 3968 2886 
L 3910 4326 
L 3776 4326 
C 3738 4192 3635 4115 3507 4115 
C 3450 4115 3354 4134 3258 4166 
C 2944 4275 2624 4326 2323 4326 
C 1798 4326 1267 4128 870 3776 
C 422 3379 179 2790 179 2086 
C 179 781 1030 -90 2304 -90 
C 3027 -90 3667 205 4051 723 
L 3936 838 
C 3469 384 3040 192 2509 192 
C 2106 192 1747 320 1472 563 
C 1120 877 922 1453 922 2170 
C 922 3328 1517 4070 2445 4070 
C 2810 4070 3142 3936 3398 3686 
C 3603 3482 3699 3302 3821 2886 
L 3968 2886 
z
" transform="scale(0.015625)"/>
       <path id="NimbusRoman-Regular-66" d="M 1978 2880 
L 1190 2880 
L 1190 3622 
C 1190 4000 1312 4192 1555 4192 
C 1696 4192 1779 4128 1894 3942 
C 1997 3776 2074 3712 2182 3712 
C 2336 3712 2451 3827 2451 3974 
C 2451 4205 2170 4371 1786 4371 
C 1382 4371 1050 4198 883 3910 
C 717 3622 666 3392 659 2880 
L 134 2880 
L 134 2675 
L 659 2675 
L 659 666 
C 646 186 582 115 128 96 
L 128 0 
L 1792 0 
L 1792 96 
C 1267 115 1197 186 1197 666 
L 1197 2675 
L 1978 2675 
L 1978 2880 
z
" transform="scale(0.015625)"/>
       <path id="NimbusRoman-Regular-64" d="M 3142 371 
C 3059 365 3021 365 2995 365 
C 2771 365 2714 435 2714 730 
L 2714 4358 
L 2682 4371 
C 2381 4269 2163 4198 1741 4090 
L 1741 3987 
C 1792 3994 1824 3994 1882 3994 
C 2118 3994 2176 3930 2176 3667 
L 2176 2669 
C 1933 2874 1760 2944 1504 2944 
C 768 2944 173 2221 173 1312 
C 173 493 646 -64 1357 -64 
C 1715 -64 1958 64 2176 365 
L 2176 -45 
L 2202 -64 
L 3142 269 
L 3142 371 
z
M 2176 653 
C 2176 608 2131 531 2067 461 
C 1958 333 1792 269 1606 269 
C 1069 269 723 781 723 1574 
C 723 2291 1037 2765 1523 2765 
C 1869 2765 2176 2464 2176 2125 
L 2176 653 
z
" transform="scale(0.015625)"/>
       <path id="NimbusRoman-Regular-4d" d="M 5523 4237 
L 4250 4237 
L 2835 1005 
L 1357 4237 
L 90 4237 
L 90 4115 
C 614 4090 685 4019 698 3539 
L 698 941 
C 685 262 602 154 77 122 
L 77 0 
L 1581 0 
L 1581 122 
C 1088 147 992 282 979 941 
L 979 3520 
L 2586 0 
L 2675 0 
L 4314 3667 
L 4314 768 
C 4307 224 4237 154 3731 122 
L 3731 0 
L 5523 0 
L 5523 122 
C 5062 147 4979 237 4966 698 
L 4966 3539 
C 4979 4000 5056 4083 5523 4115 
L 5523 4237 
z
" transform="scale(0.015625)"/>
       <path id="NimbusRoman-Regular-5f" d="M 3194 -845 
L 3194 -525 
L 13 -525 
L 13 -845 
L 3194 -845 
z
" transform="scale(0.015625)"/>
       <path id="NimbusRoman-Regular-70" d="M 32 -1389 
L 1581 -1389 
L 1581 -1274 
C 1101 -1267 1024 -1203 1018 -794 
L 1018 211 
C 1248 0 1395 -64 1664 -64 
C 2426 -64 3008 653 3008 1581 
C 3008 2374 2560 2944 1939 2944 
C 1581 2944 1299 2790 1018 2438 
L 1018 2931 
L 979 2944 
C 634 2810 410 2726 58 2618 
L 58 2515 
C 115 2522 154 2522 218 2522 
C 435 2522 480 2458 480 2157 
L 480 -838 
C 480 -1178 410 -1242 32 -1280 
L 32 -1389 
z
M 1018 2138 
C 1018 2330 1376 2560 1670 2560 
C 2144 2560 2458 2074 2458 1325 
C 2458 621 2144 141 1683 141 
C 1382 141 1018 371 1018 563 
L 1018 2138 
z
" transform="scale(0.015625)"/>
      </defs>
      <use xlink:href="#NimbusRoman-Regular-4c"/>
      <use xlink:href="#NimbusRoman-Regular-65" x="61.099991"/>
      <use xlink:href="#NimbusRoman-Regular-61" x="105.499985"/>
      <use xlink:href="#NimbusRoman-Regular-73" x="149.899979"/>
      <use xlink:href="#NimbusRoman-Regular-74" x="188.799973"/>
      <use xlink:href="#NimbusRoman-Regular-43" x="216.59996"/>
      <use xlink:href="#NimbusRoman-Regular-6f" x="283.299957"/>
      <use xlink:href="#NimbusRoman-Regular-6e" x="333.299942"/>
      <use xlink:href="#NimbusRoman-Regular-66" x="383.299927"/>
      <use xlink:href="#NimbusRoman-Regular-69" x="416.599915"/>
      <use xlink:href="#NimbusRoman-Regular-64" x="444.399902"/>
      <use xlink:href="#NimbusRoman-Regular-65" x="494.399887"/>
      <use xlink:href="#NimbusRoman-Regular-6e" x="538.799881"/>
      <use xlink:href="#NimbusRoman-Regular-63" x="588.799866"/>
      <use xlink:href="#NimbusRoman-Regular-65" x="633.19986"/>
      <use xlink:href="#NimbusRoman-Regular-4d" x="677.599854"/>
      <use xlink:href="#NimbusRoman-Regular-65" x="766.499847"/>
      <use xlink:href="#NimbusRoman-Regular-64" x="810.899841"/>
      <use xlink:href="#NimbusRoman-Regular-69" x="860.899826"/>
      <use xlink:href="#NimbusRoman-Regular-61" x="888.699814"/>
      <use xlink:href="#NimbusRoman-Regular-6e" x="933.099808"/>
      <use xlink:href="#NimbusRoman-Regular-5f" x="983.099792"/>
      <use xlink:href="#NimbusRoman-Regular-31" x="1033.099777"/>
      <use xlink:href="#NimbusRoman-Regular-2e" x="1083.099762"/>
      <use xlink:href="#NimbusRoman-Regular-30" x="1108.099747"/>
      <use xlink:href="#NimbusRoman-Regular-5f" x="1158.099731"/>
      <use xlink:href="#NimbusRoman-Regular-66" x="1208.099716"/>
      <use xlink:href="#NimbusRoman-Regular-70" x="1241.399704"/>
      <use xlink:href="#NimbusRoman-Regular-73" x="1291.399689"/>
     </g>
    </g>
    <g id="line2d_61">
     <path d="M 66.6 68.142313 
L 76.6 68.142313 
L 86.6 68.142313 
" style="fill: none; stroke: #008000; stroke-width: 1.5; stroke-linecap: square"/>
    </g>
    <g id="text_32">
     <!-- LeastConfidenceMedian_1.0_random -->
     <g transform="translate(94.6 71.642313)scale(0.1 -0.1)">
      <defs>
       <path id="NimbusRoman-Regular-6d" d="M 102 0 
L 1523 0 
L 1523 96 
C 1197 102 1094 173 1088 429 
L 1088 2234 
C 1088 2246 1139 2310 1184 2355 
C 1344 2502 1619 2611 1843 2611 
C 2125 2611 2266 2387 2266 1939 
L 2266 550 
C 2253 186 2189 115 1830 96 
L 1830 0 
L 3264 0 
L 3264 96 
C 2906 96 2816 198 2803 608 
L 2803 2221 
C 2995 2496 3200 2611 3501 2611 
C 3866 2611 3981 2438 3981 1907 
L 3981 557 
C 3968 179 3930 134 3558 96 
L 3558 0 
L 4960 0 
L 4960 96 
L 4794 109 
C 4589 141 4518 237 4518 486 
L 4518 1805 
C 4518 2560 4269 2944 3776 2944 
C 3405 2944 3078 2778 2733 2406 
C 2618 2771 2400 2944 2054 2944 
C 1766 2944 1594 2861 1062 2451 
L 1062 2931 
L 1018 2944 
C 678 2822 461 2752 122 2656 
L 122 2547 
C 198 2566 256 2573 326 2573 
C 493 2573 550 2470 550 2163 
L 550 544 
C 538 186 454 96 102 96 
L 102 0 
z
" transform="scale(0.015625)"/>
      </defs>
      <use xlink:href="#NimbusRoman-Regular-4c"/>
      <use xlink:href="#NimbusRoman-Regular-65" x="61.099991"/>
      <use xlink:href="#NimbusRoman-Regular-61" x="105.499985"/>
      <use xlink:href="#NimbusRoman-Regular-73" x="149.899979"/>
      <use xlink:href="#NimbusRoman-Regular-74" x="188.799973"/>
      <use xlink:href="#NimbusRoman-Regular-43" x="216.59996"/>
      <use xlink:href="#NimbusRoman-Regular-6f" x="283.299957"/>
      <use xlink:href="#NimbusRoman-Regular-6e" x="333.299942"/>
      <use xlink:href="#NimbusRoman-Regular-66" x="383.299927"/>
      <use xlink:href="#NimbusRoman-Regular-69" x="416.599915"/>
      <use xlink:href="#NimbusRoman-Regular-64" x="444.399902"/>
      <use xlink:href="#NimbusRoman-Regular-65" x="494.399887"/>
      <use xlink:href="#NimbusRoman-Regular-6e" x="538.799881"/>
      <use xlink:href="#NimbusRoman-Regular-63" x="588.799866"/>
      <use xlink:href="#NimbusRoman-Regular-65" x="633.19986"/>
      <use xlink:href="#NimbusRoman-Regular-4d" x="677.599854"/>
      <use xlink:href="#NimbusRoman-Regular-65" x="766.499847"/>
      <use xlink:href="#NimbusRoman-Regular-64" x="810.899841"/>
      <use xlink:href="#NimbusRoman-Regular-69" x="860.899826"/>
      <use xlink:href="#NimbusRoman-Regular-61" x="888.699814"/>
      <use xlink:href="#NimbusRoman-Regular-6e" x="933.099808"/>
      <use xlink:href="#NimbusRoman-Regular-5f" x="983.099792"/>
      <use xlink:href="#NimbusRoman-Regular-31" x="1033.099777"/>
      <use xlink:href="#NimbusRoman-Regular-2e" x="1083.099762"/>
      <use xlink:href="#NimbusRoman-Regular-30" x="1108.099747"/>
      <use xlink:href="#NimbusRoman-Regular-5f" x="1158.099731"/>
      <use xlink:href="#NimbusRoman-Regular-72" x="1208.099716"/>
      <use xlink:href="#NimbusRoman-Regular-61" x="1241.399704"/>
      <use xlink:href="#NimbusRoman-Regular-6e" x="1285.799698"/>
      <use xlink:href="#NimbusRoman-Regular-64" x="1335.799683"/>
      <use xlink:href="#NimbusRoman-Regular-6f" x="1385.799667"/>
      <use xlink:href="#NimbusRoman-Regular-6d" x="1435.799652"/>
     </g>
    </g>
    <g id="line2d_62">
     <path d="M 66.6 82.312625 
L 76.6 82.312625 
L 86.6 82.312625 
" style="fill: none; stroke: #ff0000; stroke-width: 1.5; stroke-linecap: square"/>
    </g>
    <g id="text_33">
     <!-- RandomSampling_1.0_random -->
     <g transform="translate(94.6 85.812625)scale(0.1 -0.1)">
      <defs>
       <path id="NimbusRoman-Regular-52" d="M 4218 122 
C 3974 141 3846 205 3661 422 
L 2342 2042 
C 3155 2202 3501 2522 3501 3110 
C 3501 3386 3418 3622 3251 3808 
C 3008 4070 2470 4237 1875 4237 
L 109 4237 
L 109 4115 
C 582 4064 646 4006 653 3539 
L 653 768 
C 646 224 589 160 109 122 
L 109 0 
L 1882 0 
L 1882 122 
C 1389 154 1312 230 1306 698 
L 1306 1958 
L 1664 1971 
L 3187 0 
L 4218 0 
L 4218 122 
z
M 1306 3770 
C 1306 3949 1376 4000 1632 4000 
C 2432 4000 2803 3725 2803 3123 
C 2803 2803 2669 2534 2438 2413 
C 2144 2246 1920 2208 1306 2195 
L 1306 3770 
z
" transform="scale(0.015625)"/>
       <path id="NimbusRoman-Regular-53" d="M 2861 4326 
L 2726 4326 
C 2701 4186 2630 4109 2522 4109 
C 2458 4109 2349 4134 2240 4186 
C 2003 4275 1766 4326 1555 4326 
C 1286 4326 1005 4218 794 4032 
C 570 3834 454 3565 454 3232 
C 454 2720 736 2362 1453 1984 
C 1914 1734 2246 1478 2406 1235 
C 2464 1152 2496 1018 2496 858 
C 2496 435 2176 141 1709 141 
C 1133 141 736 493 416 1274 
L 269 1274 
L 461 -83 
L 602 -83 
C 608 38 685 128 781 128 
C 851 128 960 102 1082 58 
C 1325 -38 1587 -90 1837 -90 
C 2579 -90 3142 416 3142 1082 
C 3142 1606 2790 2016 1946 2477 
C 1274 2842 1005 3123 1005 3475 
C 1005 3827 1274 4064 1670 4064 
C 1958 4064 2227 3942 2451 3712 
C 2650 3507 2739 3341 2842 2963 
L 3002 2963 
L 2861 4326 
z
" transform="scale(0.015625)"/>
       <path id="NimbusRoman-Regular-6c" d="M 134 0 
L 1645 0 
L 1645 96 
C 1242 115 1171 179 1165 538 
L 1165 4358 
L 1139 4371 
C 813 4269 576 4198 122 4090 
L 122 3987 
L 160 3987 
C 230 3994 307 4000 358 4000 
C 563 4000 627 3910 627 3610 
L 627 557 
C 621 211 531 122 134 96 
L 134 0 
z
" transform="scale(0.015625)"/>
       <path id="NimbusRoman-Regular-67" d="M 3008 2483 
L 3008 2733 
L 2515 2733 
C 2381 2733 2291 2752 2163 2797 
L 2022 2848 
C 1856 2912 1677 2944 1510 2944 
C 915 2944 442 2490 442 1901 
C 442 1498 608 1254 1037 1043 
L 870 890 
C 736 762 659 691 640 666 
C 506 525 467 454 467 346 
C 467 205 538 134 806 6 
C 346 -326 179 -538 179 -774 
C 179 -1114 672 -1395 1286 -1395 
C 1766 -1395 2266 -1229 2598 -960 
C 2842 -762 2950 -557 2950 -314 
C 2950 83 2650 346 2176 371 
L 1350 410 
C 1005 422 851 480 851 582 
C 851 710 1062 934 1235 986 
C 1466 966 1587 954 1600 954 
C 1837 954 2093 1050 2291 1222 
C 2502 1402 2598 1626 2598 1946 
C 2598 2131 2566 2278 2477 2483 
L 3008 2483 
z
M 941 -13 
C 1158 -58 1658 -96 1984 -96 
C 2560 -96 2771 -179 2771 -410 
C 2771 -781 2285 -1030 1562 -1030 
C 992 -1030 627 -845 627 -563 
C 627 -416 685 -320 941 -13 
z
M 973 2163 
C 973 2541 1152 2765 1446 2765 
C 1645 2765 1811 2656 1914 2464 
C 2035 2240 2106 1952 2106 1696 
C 2106 1338 1926 1114 1632 1114 
C 1235 1114 973 1530 973 2144 
L 973 2163 
z
" transform="scale(0.015625)"/>
      </defs>
      <use xlink:href="#NimbusRoman-Regular-52"/>
      <use xlink:href="#NimbusRoman-Regular-61" x="66.699997"/>
      <use xlink:href="#NimbusRoman-Regular-6e" x="111.099991"/>
      <use xlink:href="#NimbusRoman-Regular-64" x="161.099976"/>
      <use xlink:href="#NimbusRoman-Regular-6f" x="211.09996"/>
      <use xlink:href="#NimbusRoman-Regular-6d" x="261.099945"/>
      <use xlink:href="#NimbusRoman-Regular-53" x="338.899933"/>
      <use xlink:href="#NimbusRoman-Regular-61" x="394.499924"/>
      <use xlink:href="#NimbusRoman-Regular-6d" x="438.899918"/>
      <use xlink:href="#NimbusRoman-Regular-70" x="516.699905"/>
      <use xlink:href="#NimbusRoman-Regular-6c" x="566.69989"/>
      <use xlink:href="#NimbusRoman-Regular-69" x="594.499878"/>
      <use xlink:href="#NimbusRoman-Regular-6e" x="622.299866"/>
      <use xlink:href="#NimbusRoman-Regular-67" x="672.29985"/>
      <use xlink:href="#NimbusRoman-Regular-5f" x="722.299835"/>
      <use xlink:href="#NimbusRoman-Regular-31" x="772.29982"/>
      <use xlink:href="#NimbusRoman-Regular-2e" x="822.299805"/>
      <use xlink:href="#NimbusRoman-Regular-30" x="847.299789"/>
      <use xlink:href="#NimbusRoman-Regular-5f" x="897.299774"/>
      <use xlink:href="#NimbusRoman-Regular-72" x="947.299759"/>
      <use xlink:href="#NimbusRoman-Regular-61" x="980.599747"/>
      <use xlink:href="#NimbusRoman-Regular-6e" x="1024.999741"/>
      <use xlink:href="#NimbusRoman-Regular-64" x="1074.999725"/>
      <use xlink:href="#NimbusRoman-Regular-6f" x="1124.99971"/>
      <use xlink:href="#NimbusRoman-Regular-6d" x="1174.999695"/>
     </g>
    </g>
   </g>
  </g>
  <g id="axes_2">
   <g id="patch_8">
    <path d="M 299.52 293.76 
L 391.68 293.76 
L 391.68 224.64 
L 299.52 224.64 
z
" style="fill: #ffffff"/>
   </g>
   <g id="patch_9">
    <path d="M 303.709091 293.76 
L 309.915152 293.76 
L 309.915152 227.931429 
L 303.709091 227.931429 
z
" clip-path="url(#p1ca6643c86)" style="fill: #ffa500"/>
   </g>
   <g id="patch_10">
    <path d="M 311.466667 293.76 
L 317.672727 293.76 
L 317.672727 279.802537 
L 311.466667 279.802537 
z
" clip-path="url(#p1ca6643c86)" style="fill: #ffa500"/>
   </g>
   <g id="patch_11">
    <path d="M 319.224242 293.76 
L 325.430303 293.76 
L 325.430303 239.002629 
L 319.224242 239.002629 
z
" clip-path="url(#p1ca6643c86)" style="fill: #ffa500"/>
   </g>
   <g id="patch_12">
    <path d="M 326.981818 293.76 
L 333.187879 293.76 
L 333.187879 288.005807 
L 326.981818 288.005807 
z
" clip-path="url(#p1ca6643c86)" style="fill: #ffa500"/>
   </g>
   <g id="patch_13">
    <path d="M 334.739394 293.76 
L 340.945455 293.76 
L 340.945455 289.285645 
L 334.739394 289.285645 
z
" clip-path="url(#p1ca6643c86)" style="fill: #ffa500"/>
   </g>
   <g id="patch_14">
    <path d="M 342.49697 293.76 
L 348.70303 293.76 
L 348.70303 267.661923 
L 342.49697 267.661923 
z
" clip-path="url(#p1ca6643c86)" style="fill: #ffa500"/>
   </g>
   <g id="patch_15">
    <path d="M 350.254545 293.76 
L 356.460606 293.76 
L 356.460606 239.842076 
L 350.254545 239.842076 
z
" clip-path="url(#p1ca6643c86)" style="fill: #ffa500"/>
   </g>
   <g id="patch_16">
    <path d="M 358.012121 293.76 
L 364.218182 293.76 
L 364.218182 285.254494 
L 358.012121 285.254494 
z
" clip-path="url(#p1ca6643c86)" style="fill: #ffa500"/>
   </g>
   <g id="patch_17">
    <path d="M 365.769697 293.76 
L 371.975758 293.76 
L 371.975758 276.838112 
L 365.769697 276.838112 
z
" clip-path="url(#p1ca6643c86)" style="fill: #ffa500"/>
   </g>
   <g id="patch_18">
    <path d="M 373.527273 293.76 
L 379.733333 293.76 
L 379.733333 290.687813 
L 373.527273 290.687813 
z
" clip-path="url(#p1ca6643c86)" style="fill: #ffa500"/>
   </g>
   <g id="patch_19">
    <path d="M 381.284848 293.76 
L 387.490909 293.76 
L 387.490909 292.873818 
L 381.284848 292.873818 
z
" clip-path="url(#p1ca6643c86)" style="fill: #ffa500"/>
   </g>
   <g id="matplotlib.axis_3"/>
   <g id="matplotlib.axis_4"/>
   <g id="patch_20">
    <path d="M 299.52 293.76 
L 299.52 224.64 
" style="fill: none; stroke: #000000; stroke-width: 0.8; stroke-linejoin: miter; stroke-linecap: square"/>
   </g>
   <g id="patch_21">
    <path d="M 391.68 293.76 
L 391.68 224.64 
" style="fill: none; stroke: #000000; stroke-width: 0.8; stroke-linejoin: miter; stroke-linecap: square"/>
   </g>
   <g id="patch_22">
    <path d="M 299.52 293.76 
L 391.68 293.76 
" style="fill: none; stroke: #000000; stroke-width: 0.8; stroke-linejoin: miter; stroke-linecap: square"/>
   </g>
   <g id="patch_23">
    <path d="M 299.52 224.64 
L 391.68 224.64 
" style="fill: none; stroke: #000000; stroke-width: 0.8; stroke-linejoin: miter; stroke-linecap: square"/>
   </g>
   <g id="text_34">
    <!-- Class Distribution Dyn. World -->
    <g transform="translate(286.665 218.64)scale(0.096 -0.096)">
     <defs>
      <path id="NimbusRoman-Regular-20" transform="scale(0.015625)"/>
      <path id="NimbusRoman-Regular-44" d="M 102 0 
L 1920 0 
C 2662 0 3334 211 3731 570 
C 4147 947 4384 1517 4384 2138 
C 4384 2714 4198 3213 3840 3565 
C 3405 4006 2707 4237 1830 4237 
L 102 4237 
L 102 4115 
C 608 4070 659 4019 666 3539 
L 666 698 
C 659 230 582 154 102 122 
L 102 0 
z
M 1318 3750 
C 1318 3949 1382 4000 1651 4000 
C 2208 4000 2618 3898 2925 3680 
C 3424 3334 3686 2784 3686 2093 
C 3686 1338 3424 800 2906 499 
C 2579 314 2208 237 1651 237 
C 1395 237 1318 294 1318 499 
L 1318 3750 
z
" transform="scale(0.015625)"/>
      <path id="NimbusRoman-Regular-62" d="M 979 4358 
L 947 4371 
C 685 4282 512 4224 205 4141 
L 19 4090 
L 19 3987 
C 58 3994 77 3994 128 3994 
C 384 3994 442 3936 442 3667 
L 442 346 
C 442 147 979 -64 1498 -64 
C 2342 -64 2995 640 2995 1555 
C 2995 2349 2509 2944 1869 2944 
C 1478 2944 1107 2720 979 2400 
L 979 4358 
z
M 979 2061 
C 979 2310 1280 2541 1613 2541 
C 1792 2541 1952 2477 2086 2355 
C 2291 2157 2432 1722 2432 1261 
C 2432 550 2125 141 1600 141 
C 1267 141 979 282 979 448 
L 979 2061 
z
" transform="scale(0.015625)"/>
      <path id="NimbusRoman-Regular-57" d="M 5965 4237 
L 4698 4237 
L 4698 4115 
C 5024 4083 5139 4013 5139 3840 
C 5139 3712 5101 3539 5037 3360 
L 4237 1190 
L 3392 3373 
C 3347 3488 3328 3539 3315 3565 
C 3258 3699 3219 3821 3219 3891 
C 3219 4045 3366 4109 3712 4115 
L 3712 4237 
L 2003 4237 
L 2003 4115 
C 2368 4109 2432 4051 2650 3539 
L 2861 3014 
L 2176 1210 
L 1254 3616 
C 1210 3731 1184 3840 1184 3910 
C 1184 4051 1274 4090 1600 4115 
L 1600 4237 
L 32 4237 
L 32 4115 
C 358 4083 454 3968 691 3366 
L 1926 -70 
L 2022 -70 
L 3008 2637 
L 4032 -70 
L 4128 -70 
C 4678 1606 4723 1741 5434 3661 
C 5555 3994 5626 4051 5965 4115 
L 5965 4237 
z
" transform="scale(0.015625)"/>
     </defs>
     <use xlink:href="#NimbusRoman-Regular-43"/>
     <use xlink:href="#NimbusRoman-Regular-6c" x="66.699997"/>
     <use xlink:href="#NimbusRoman-Regular-61" x="94.499985"/>
     <use xlink:href="#NimbusRoman-Regular-73" x="138.899979"/>
     <use xlink:href="#NimbusRoman-Regular-73" x="177.799973"/>
     <use xlink:href="#NimbusRoman-Regular-20" x="216.699966"/>
     <use xlink:href="#NimbusRoman-Regular-44" x="241.699951"/>
     <use xlink:href="#NimbusRoman-Regular-69" x="313.899933"/>
     <use xlink:href="#NimbusRoman-Regular-73" x="341.699921"/>
     <use xlink:href="#NimbusRoman-Regular-74" x="380.599915"/>
     <use xlink:href="#NimbusRoman-Regular-72" x="408.399902"/>
     <use xlink:href="#NimbusRoman-Regular-69" x="441.69989"/>
     <use xlink:href="#NimbusRoman-Regular-62" x="469.499878"/>
     <use xlink:href="#NimbusRoman-Regular-75" x="519.499863"/>
     <use xlink:href="#NimbusRoman-Regular-74" x="569.499847"/>
     <use xlink:href="#NimbusRoman-Regular-69" x="597.299835"/>
     <use xlink:href="#NimbusRoman-Regular-6f" x="625.099823"/>
     <use xlink:href="#NimbusRoman-Regular-6e" x="675.099808"/>
     <use xlink:href="#NimbusRoman-Regular-20" x="725.099792"/>
     <use xlink:href="#NimbusRoman-Regular-44" x="750.099777"/>
     <use xlink:href="#NimbusRoman-Regular-79" x="822.299759"/>
     <use xlink:href="#NimbusRoman-Regular-6e" x="872.299744"/>
     <use xlink:href="#NimbusRoman-Regular-2e" x="922.299728"/>
     <use xlink:href="#NimbusRoman-Regular-20" x="947.299713"/>
     <use xlink:href="#NimbusRoman-Regular-57" x="972.299698"/>
     <use xlink:href="#NimbusRoman-Regular-6f" x="1066.699692"/>
     <use xlink:href="#NimbusRoman-Regular-72" x="1116.699677"/>
     <use xlink:href="#NimbusRoman-Regular-6c" x="1149.999664"/>
     <use xlink:href="#NimbusRoman-Regular-64" x="1177.799652"/>
    </g>
   </g>
  </g>
 </g>
 <defs>
  <clipPath id="p1158d20355">
   <rect x="57.6" y="41.472" width="357.12" height="266.112"/>
  </clipPath>
  <clipPath id="p1ca6643c86">
   <rect x="299.52" y="224.64" width="92.16" height="69.12"/>
  </clipPath>
 </defs>
</svg>
