<?xml version="1.0" encoding="utf-8" standalone="no"?>
<!DOCTYPE svg PUBLIC "-//W3C//DTD SVG 1.1//EN"
  "http://www.w3.org/Graphics/SVG/1.1/DTD/svg11.dtd">
<svg xmlns:xlink="http://www.w3.org/1999/xlink" width="460.8pt" height="345.6pt" viewBox="0 0 460.8 345.6" xmlns="http://www.w3.org/2000/svg" version="1.1">
 <metadata>
  <rdf:RDF xmlns:dc="http://purl.org/dc/elements/1.1/" xmlns:cc="http://creativecommons.org/ns#" xmlns:rdf="http://www.w3.org/1999/02/22-rdf-syntax-ns#">
   <cc:Work>
    <dc:type rdf:resource="http://purl.org/dc/dcmitype/StillImage"/>
    <dc:date>2024-10-26T23:15:49.845942</dc:date>
    <dc:format>image/svg+xml</dc:format>
    <dc:creator>
     <cc:Agent>
      <dc:title>Matplotlib v3.5.3, https://matplotlib.org/</dc:title>
     </cc:Agent>
    </dc:creator>
   </cc:Work>
  </rdf:RDF>
 </metadata>
 <defs>
  <style type="text/css">*{stroke-linejoin: round; stroke-linecap: butt}</style>
 </defs>
 <g id="figure_1">
  <g id="patch_1">
   <path d="M 0 345.6 
L 460.8 345.6 
L 460.8 0 
L 0 0 
z
" style="fill: #ffffff"/>
  </g>
  <g id="axes_1">
   <g id="patch_2">
    <path d="M 57.6 307.584 
L 414.72 307.584 
L 414.72 41.472 
L 57.6 41.472 
z
" style="fill: #ffffff"/>
   </g>
   <g id="matplotlib.axis_1">
    <g id="xtick_1">
     <g id="line2d_1">
      <path d="M 73.832727 307.584 
L 73.832727 41.472 
" clip-path="url(#p6880478b1b)" style="fill: none; stroke: #b0b0b0; stroke-opacity: 0.2; stroke-width: 0.8; stroke-linecap: square"/>
     </g>
     <g id="line2d_2">
      <defs>
       <path id="m4c738d2213" d="M 0 0 
L 0 3.5 
" style="stroke: #000000; stroke-width: 0.8"/>
      </defs>
      <g>
       <use xlink:href="#m4c738d2213" x="73.832727" y="307.584" style="stroke: #000000; stroke-width: 0.8"/>
      </g>
     </g>
     <g id="text_1">
      <!-- 1 -->
      <g transform="translate(71.332727 321.413687)scale(0.1 -0.1)">
       <defs>
        <path id="NimbusRoman-Regular-31" d="M 755 0 
L 2522 0 
L 2522 96 
C 2029 96 1920 166 1914 474 
L 1914 4314 
L 1862 4326 
L 710 3744 
L 710 3654 
C 960 3750 1114 3795 1171 3795 
C 1306 3795 1363 3699 1363 3494 
L 1363 595 
C 1350 192 1242 102 755 96 
L 755 0 
z
" transform="scale(0.015625)"/>
       </defs>
       <use xlink:href="#NimbusRoman-Regular-31"/>
      </g>
     </g>
    </g>
    <g id="xtick_2">
     <g id="line2d_3">
      <path d="M 109.905455 307.584 
L 109.905455 41.472 
" clip-path="url(#p6880478b1b)" style="fill: none; stroke: #b0b0b0; stroke-opacity: 0.2; stroke-width: 0.8; stroke-linecap: square"/>
     </g>
     <g id="line2d_4">
      <g>
       <use xlink:href="#m4c738d2213" x="109.905455" y="307.584" style="stroke: #000000; stroke-width: 0.8"/>
      </g>
     </g>
     <g id="text_2">
      <!-- 2 -->
      <g transform="translate(107.405455 321.413687)scale(0.1 -0.1)">
       <defs>
        <path id="NimbusRoman-Regular-32" d="M 3040 877 
L 2957 909 
C 2720 538 2650 493 2349 486 
L 819 486 
L 1894 1613 
C 2464 2208 2714 2694 2714 3194 
C 2714 3834 2195 4326 1530 4326 
C 1178 4326 845 4186 608 3930 
C 403 3712 307 3507 198 3053 
L 333 3021 
C 589 3648 813 3853 1261 3853 
C 1805 3853 2163 3488 2163 2950 
C 2163 2445 1869 1856 1331 1286 
L 192 77 
L 192 0 
L 2688 0 
L 3040 877 
z
" transform="scale(0.015625)"/>
       </defs>
       <use xlink:href="#NimbusRoman-Regular-32"/>
      </g>
     </g>
    </g>
    <g id="xtick_3">
     <g id="line2d_5">
      <path d="M 145.978182 307.584 
L 145.978182 41.472 
" clip-path="url(#p6880478b1b)" style="fill: none; stroke: #b0b0b0; stroke-opacity: 0.2; stroke-width: 0.8; stroke-linecap: square"/>
     </g>
     <g id="line2d_6">
      <g>
       <use xlink:href="#m4c738d2213" x="145.978182" y="307.584" style="stroke: #000000; stroke-width: 0.8"/>
      </g>
     </g>
     <g id="text_3">
      <!-- 3 -->
      <g transform="translate(143.478182 321.413687)scale(0.1 -0.1)">
       <defs>
        <path id="NimbusRoman-Regular-33" d="M 979 2112 
C 1357 2112 1504 2099 1651 2042 
C 2054 1894 2298 1536 2298 1094 
C 2298 550 1939 141 1466 141 
C 1286 141 1158 186 922 339 
C 736 454 627 499 518 499 
C 371 499 275 410 275 275 
C 275 51 550 -90 998 -90 
C 1485 -90 1990 77 2298 339 
C 2598 602 2758 973 2758 1402 
C 2758 1734 2656 2029 2477 2227 
C 2342 2368 2221 2445 1946 2566 
C 2381 2867 2541 3104 2541 3450 
C 2541 3974 2138 4326 1542 4326 
C 1222 4326 941 4218 710 4013 
C 518 3834 422 3674 288 3290 
L 384 3264 
C 640 3738 928 3942 1331 3942 
C 1754 3942 2035 3667 2035 3258 
C 2035 3027 1939 2803 1779 2637 
C 1587 2445 1408 2349 973 2195 
L 979 2112 
z
" transform="scale(0.015625)"/>
       </defs>
       <use xlink:href="#NimbusRoman-Regular-33"/>
      </g>
     </g>
    </g>
    <g id="xtick_4">
     <g id="line2d_7">
      <path d="M 182.050909 307.584 
L 182.050909 41.472 
" clip-path="url(#p6880478b1b)" style="fill: none; stroke: #b0b0b0; stroke-opacity: 0.2; stroke-width: 0.8; stroke-linecap: square"/>
     </g>
     <g id="line2d_8">
      <g>
       <use xlink:href="#m4c738d2213" x="182.050909" y="307.584" style="stroke: #000000; stroke-width: 0.8"/>
      </g>
     </g>
     <g id="text_4">
      <!-- 4 -->
      <g transform="translate(179.550909 321.413687)scale(0.1 -0.1)">
       <defs>
        <path id="NimbusRoman-Regular-34" d="M 3021 1478 
L 2368 1478 
L 2368 4326 
L 2086 4326 
L 77 1478 
L 77 1069 
L 1875 1069 
L 1875 0 
L 2368 0 
L 2368 1069 
L 3021 1069 
L 3021 1478 
z
M 1869 1478 
L 333 1478 
L 1869 3674 
L 1869 1478 
z
" transform="scale(0.015625)"/>
       </defs>
       <use xlink:href="#NimbusRoman-Regular-34"/>
      </g>
     </g>
    </g>
    <g id="xtick_5">
     <g id="line2d_9">
      <path d="M 218.123636 307.584 
L 218.123636 41.472 
" clip-path="url(#p6880478b1b)" style="fill: none; stroke: #b0b0b0; stroke-opacity: 0.2; stroke-width: 0.8; stroke-linecap: square"/>
     </g>
     <g id="line2d_10">
      <g>
       <use xlink:href="#m4c738d2213" x="218.123636" y="307.584" style="stroke: #000000; stroke-width: 0.8"/>
      </g>
     </g>
     <g id="text_5">
      <!-- 5 -->
      <g transform="translate(215.623636 321.413687)scale(0.1 -0.1)">
       <defs>
        <path id="NimbusRoman-Regular-35" d="M 1158 3731 
L 2413 3731 
C 2522 3731 2541 3738 2560 3789 
L 2803 4358 
L 2746 4403 
C 2650 4275 2592 4237 2451 4237 
L 1114 4237 
L 416 2720 
C 410 2707 410 2701 410 2688 
C 410 2650 435 2637 486 2637 
C 691 2637 941 2592 1210 2509 
C 1946 2272 2278 1882 2278 1242 
C 2278 627 1894 147 1389 147 
C 1261 147 1158 192 966 333 
C 762 486 621 544 474 544 
C 294 544 205 467 205 307 
C 205 64 499 -90 986 -90 
C 1517 -90 1978 83 2304 410 
C 2592 698 2726 1062 2726 1549 
C 2726 2010 2605 2304 2291 2624 
C 2010 2906 1645 3053 890 3187 
L 1158 3731 
z
" transform="scale(0.015625)"/>
       </defs>
       <use xlink:href="#NimbusRoman-Regular-35"/>
      </g>
     </g>
    </g>
    <g id="xtick_6">
     <g id="line2d_11">
      <path d="M 254.196364 307.584 
L 254.196364 41.472 
" clip-path="url(#p6880478b1b)" style="fill: none; stroke: #b0b0b0; stroke-opacity: 0.2; stroke-width: 0.8; stroke-linecap: square"/>
     </g>
     <g id="line2d_12">
      <g>
       <use xlink:href="#m4c738d2213" x="254.196364" y="307.584" style="stroke: #000000; stroke-width: 0.8"/>
      </g>
     </g>
     <g id="text_6">
      <!-- 6 -->
      <g transform="translate(251.696364 321.413687)scale(0.1 -0.1)">
       <defs>
        <path id="NimbusRoman-Regular-36" d="M 2854 4378 
C 2125 4314 1754 4192 1286 3866 
C 595 3373 218 2643 218 1786 
C 218 1229 390 666 666 346 
C 909 64 1254 -90 1651 -90 
C 2445 -90 2995 518 2995 1402 
C 2995 2227 2534 2739 1786 2739 
C 1504 2739 1376 2694 973 2451 
C 1146 3418 1862 4109 2867 4275 
L 2854 4378 
z
M 1549 2445 
C 2106 2445 2419 1984 2419 1184 
C 2419 480 2170 90 1722 90 
C 1158 90 813 691 813 1683 
C 813 2010 864 2189 992 2285 
C 1126 2387 1325 2445 1549 2445 
z
" transform="scale(0.015625)"/>
       </defs>
       <use xlink:href="#NimbusRoman-Regular-36"/>
      </g>
     </g>
    </g>
    <g id="xtick_7">
     <g id="line2d_13">
      <path d="M 290.269091 307.584 
L 290.269091 41.472 
" clip-path="url(#p6880478b1b)" style="fill: none; stroke: #b0b0b0; stroke-opacity: 0.2; stroke-width: 0.8; stroke-linecap: square"/>
     </g>
     <g id="line2d_14">
      <g>
       <use xlink:href="#m4c738d2213" x="290.269091" y="307.584" style="stroke: #000000; stroke-width: 0.8"/>
      </g>
     </g>
     <g id="text_7">
      <!-- 7 -->
      <g transform="translate(287.769091 321.413687)scale(0.1 -0.1)">
       <defs>
        <path id="NimbusRoman-Regular-37" d="M 2874 4237 
L 506 4237 
L 128 3296 
L 237 3245 
C 499 3674 621 3757 979 3763 
L 2368 3763 
L 1101 -51 
L 1517 -51 
L 2874 4134 
L 2874 4237 
z
" transform="scale(0.015625)"/>
       </defs>
       <use xlink:href="#NimbusRoman-Regular-37"/>
      </g>
     </g>
    </g>
    <g id="xtick_8">
     <g id="line2d_15">
      <path d="M 326.341818 307.584 
L 326.341818 41.472 
" clip-path="url(#p6880478b1b)" style="fill: none; stroke: #b0b0b0; stroke-opacity: 0.2; stroke-width: 0.8; stroke-linecap: square"/>
     </g>
     <g id="line2d_16">
      <g>
       <use xlink:href="#m4c738d2213" x="326.341818" y="307.584" style="stroke: #000000; stroke-width: 0.8"/>
      </g>
     </g>
     <g id="text_8">
      <!-- 8 -->
      <g transform="translate(323.841818 321.413687)scale(0.1 -0.1)">
       <defs>
        <path id="NimbusRoman-Regular-38" d="M 1856 2374 
C 2496 2720 2714 2982 2714 3418 
C 2714 3949 2259 4326 1613 4326 
C 915 4326 397 3898 397 3315 
C 397 2899 518 2714 1190 2125 
C 493 1594 358 1408 358 966 
C 358 339 858 -90 1587 -90 
C 2355 -90 2848 333 2848 992 
C 2848 1485 2630 1792 1856 2374 
z
M 1741 1715 
C 2208 1382 2362 1152 2362 794 
C 2362 378 2074 90 1658 90 
C 1171 90 845 461 845 1011 
C 845 1427 979 1690 1357 1997 
L 1741 1715 
z
M 1670 2490 
C 1101 2861 870 3155 870 3514 
C 870 3885 1158 4147 1562 4147 
C 1997 4147 2272 3866 2272 3424 
C 2272 3034 2106 2778 1670 2490 
z
" transform="scale(0.015625)"/>
       </defs>
       <use xlink:href="#NimbusRoman-Regular-38"/>
      </g>
     </g>
    </g>
    <g id="xtick_9">
     <g id="line2d_17">
      <path d="M 362.414545 307.584 
L 362.414545 41.472 
" clip-path="url(#p6880478b1b)" style="fill: none; stroke: #b0b0b0; stroke-opacity: 0.2; stroke-width: 0.8; stroke-linecap: square"/>
     </g>
     <g id="line2d_18">
      <g>
       <use xlink:href="#m4c738d2213" x="362.414545" y="307.584" style="stroke: #000000; stroke-width: 0.8"/>
      </g>
     </g>
     <g id="text_9">
      <!-- 9 -->
      <g transform="translate(359.914545 321.413687)scale(0.1 -0.1)">
       <defs>
        <path id="NimbusRoman-Regular-39" d="M 378 -141 
C 1094 -58 1446 64 1882 378 
C 2547 864 2938 1658 2938 2522 
C 2938 3578 2355 4326 1523 4326 
C 762 4326 192 3680 192 2816 
C 192 2035 653 1517 1344 1517 
C 1696 1517 1965 1619 2304 1882 
C 2042 838 1331 154 358 -13 
L 378 -141 
z
M 2317 2272 
C 2317 2144 2291 2086 2221 2029 
C 2048 1882 1805 1792 1574 1792 
C 1088 1792 781 2272 781 3034 
C 781 3398 883 3782 1018 3949 
C 1126 4077 1286 4147 1472 4147 
C 2029 4147 2317 3597 2317 2522 
L 2317 2272 
z
" transform="scale(0.015625)"/>
       </defs>
       <use xlink:href="#NimbusRoman-Regular-39"/>
      </g>
     </g>
    </g>
    <g id="xtick_10">
     <g id="line2d_19">
      <path d="M 398.487273 307.584 
L 398.487273 41.472 
" clip-path="url(#p6880478b1b)" style="fill: none; stroke: #b0b0b0; stroke-opacity: 0.2; stroke-width: 0.8; stroke-linecap: square"/>
     </g>
     <g id="line2d_20">
      <g>
       <use xlink:href="#m4c738d2213" x="398.487273" y="307.584" style="stroke: #000000; stroke-width: 0.8"/>
      </g>
     </g>
     <g id="text_10">
      <!-- 10 -->
      <g transform="translate(393.487273 321.413687)scale(0.1 -0.1)">
       <defs>
        <path id="NimbusRoman-Regular-30" d="M 1626 4326 
C 1274 4326 1005 4224 768 3994 
C 397 3635 154 2899 154 2150 
C 154 1446 365 704 666 346 
C 902 64 1229 -90 1600 -90 
C 1926 -90 2202 19 2432 243 
C 2803 595 3046 1338 3046 2112 
C 3046 3424 2464 4326 1626 4326 
z
M 1606 4160 
C 2144 4160 2432 3437 2432 2099 
C 2432 762 2150 77 1600 77 
C 1050 77 768 762 768 2093 
C 768 3456 1056 4160 1606 4160 
z
" transform="scale(0.015625)"/>
       </defs>
       <use xlink:href="#NimbusRoman-Regular-31"/>
       <use xlink:href="#NimbusRoman-Regular-30" x="49.999985"/>
      </g>
     </g>
    </g>
    <g id="text_11">
     <!-- Iteration -->
     <g transform="translate(219.220156 334.413687)scale(0.1 -0.1)">
      <defs>
       <path id="NimbusRoman-Regular-49" d="M 115 0 
L 2016 0 
L 2016 122 
C 1491 134 1402 224 1389 698 
L 1389 3539 
C 1402 4019 1485 4096 2016 4115 
L 2016 4237 
L 115 4237 
L 115 4115 
C 659 4083 730 4019 736 3539 
L 736 698 
C 730 211 653 141 115 122 
L 115 0 
z
" transform="scale(0.015625)"/>
       <path id="NimbusRoman-Regular-74" d="M 1632 2880 
L 986 2880 
L 986 3622 
C 986 3686 973 3706 941 3706 
C 570 3168 378 2950 192 2842 
C 122 2797 83 2758 83 2720 
C 83 2701 90 2688 109 2675 
L 448 2675 
L 448 749 
C 448 211 640 -64 1018 -64 
C 1331 -64 1574 90 1786 422 
L 1702 493 
C 1562 326 1459 269 1318 269 
C 1082 269 986 442 986 845 
L 986 2675 
L 1632 2675 
L 1632 2880 
z
" transform="scale(0.015625)"/>
       <path id="NimbusRoman-Regular-65" d="M 2611 1050 
C 2304 563 2029 378 1619 378 
C 1254 378 979 563 794 928 
C 678 1171 634 1376 621 1773 
L 2592 1773 
C 2541 2189 2477 2374 2317 2579 
C 2125 2810 1830 2944 1498 2944 
C 1178 2944 877 2829 634 2611 
C 333 2349 160 1894 160 1370 
C 160 486 621 -64 1357 -64 
C 1965 -64 2445 314 2714 1005 
L 2611 1050 
z
M 634 1978 
C 704 2477 922 2714 1312 2714 
C 1702 2714 1856 2534 1939 1978 
L 634 1978 
z
" transform="scale(0.015625)"/>
       <path id="NimbusRoman-Regular-72" d="M 32 0 
L 1568 0 
L 1568 96 
C 1139 109 1037 198 1024 576 
L 1024 2016 
C 1024 2221 1293 2541 1472 2541 
C 1510 2541 1568 2509 1638 2445 
C 1734 2349 1811 2317 1894 2317 
C 2048 2317 2144 2426 2144 2605 
C 2144 2816 2010 2944 1792 2944 
C 1523 2944 1344 2803 1024 2342 
L 1024 2931 
L 992 2944 
C 634 2803 403 2714 45 2598 
L 45 2496 
C 134 2515 192 2522 269 2522 
C 429 2522 486 2419 486 2138 
L 486 538 
C 474 205 435 166 32 96 
L 32 0 
z
" transform="scale(0.015625)"/>
       <path id="NimbusRoman-Regular-61" d="M 2829 422 
C 2720 333 2643 301 2547 301 
C 2400 301 2355 390 2355 672 
L 2355 1920 
C 2355 2253 2323 2438 2227 2592 
C 2086 2822 1811 2944 1434 2944 
C 832 2944 358 2630 358 2227 
C 358 2080 480 1952 634 1952 
C 787 1952 922 2080 922 2221 
C 922 2246 915 2278 909 2323 
C 896 2381 890 2432 890 2477 
C 890 2650 1094 2790 1350 2790 
C 1664 2790 1837 2605 1837 2259 
L 1837 1869 
C 858 1478 742 1421 467 1178 
C 326 1050 237 832 237 621 
C 237 218 518 -64 909 -64 
C 1190 -64 1453 70 1843 403 
C 1875 64 1990 -64 2253 -64 
C 2470 -64 2605 13 2829 256 
L 2829 422 
z
M 1837 787 
C 1837 595 1805 525 1670 448 
C 1510 358 1338 307 1203 307 
C 979 307 800 525 800 800 
L 800 826 
C 806 1210 1088 1453 1837 1715 
L 1837 787 
z
" transform="scale(0.015625)"/>
       <path id="NimbusRoman-Regular-69" d="M 102 0 
L 1619 0 
L 1619 96 
C 1197 128 1152 186 1146 653 
L 1146 2925 
L 1120 2944 
L 128 2592 
L 128 2496 
L 179 2502 
C 256 2515 333 2522 397 2522 
C 550 2522 608 2419 608 2138 
L 608 653 
C 595 179 538 115 102 96 
L 102 0 
z
M 819 4371 
C 646 4371 499 4224 499 4045 
C 499 3859 640 3718 819 3718 
C 1011 3718 1152 3859 1152 4045 
C 1152 4230 1005 4371 819 4371 
z
" transform="scale(0.015625)"/>
       <path id="NimbusRoman-Regular-6f" d="M 1600 2944 
C 762 2944 186 2330 186 1446 
C 186 576 781 -64 1587 -64 
C 2394 -64 3008 608 3008 1498 
C 3008 2342 2419 2944 1600 2944 
z
M 1517 2765 
C 2054 2765 2432 2150 2432 1274 
C 2432 544 2144 115 1664 115 
C 1414 115 1178 269 1043 525 
C 864 858 762 1306 762 1760 
C 762 2368 1056 2765 1517 2765 
z
" transform="scale(0.015625)"/>
       <path id="NimbusRoman-Regular-6e" d="M 115 0 
L 1472 0 
L 1472 96 
C 1152 115 1050 198 1050 429 
L 1050 2227 
C 1357 2515 1498 2592 1709 2592 
C 2022 2592 2176 2394 2176 1971 
L 2176 634 
C 2163 218 2086 115 1773 96 
L 1773 0 
L 3104 0 
L 3104 96 
C 2790 128 2720 205 2714 518 
L 2714 1984 
C 2714 2586 2432 2944 1958 2944 
C 1664 2944 1466 2835 1030 2426 
L 1030 2931 
L 986 2944 
C 653 2822 435 2752 102 2656 
L 102 2547 
C 147 2566 205 2573 275 2573 
C 454 2573 512 2477 512 2163 
L 512 576 
C 506 198 435 115 115 96 
L 115 0 
z
" transform="scale(0.015625)"/>
      </defs>
      <use xlink:href="#NimbusRoman-Regular-49"/>
      <use xlink:href="#NimbusRoman-Regular-74" x="33.299988"/>
      <use xlink:href="#NimbusRoman-Regular-65" x="61.099976"/>
      <use xlink:href="#NimbusRoman-Regular-72" x="105.499969"/>
      <use xlink:href="#NimbusRoman-Regular-61" x="138.799957"/>
      <use xlink:href="#NimbusRoman-Regular-74" x="183.199951"/>
      <use xlink:href="#NimbusRoman-Regular-69" x="210.999939"/>
      <use xlink:href="#NimbusRoman-Regular-6f" x="238.799927"/>
      <use xlink:href="#NimbusRoman-Regular-6e" x="288.799911"/>
     </g>
    </g>
   </g>
   <g id="matplotlib.axis_2">
    <g id="ytick_1">
     <g id="line2d_21">
      <path d="M 57.6 281.006873 
L 414.72 281.006873 
" clip-path="url(#p6880478b1b)" style="fill: none; stroke: #b0b0b0; stroke-opacity: 0.2; stroke-width: 0.8; stroke-linecap: square"/>
     </g>
     <g id="line2d_22">
      <defs>
       <path id="m185c3e712f" d="M 0 0 
L -3.5 0 
" style="stroke: #000000; stroke-width: 0.8"/>
      </defs>
      <g>
       <use xlink:href="#m185c3e712f" x="57.6" y="281.006873" style="stroke: #000000; stroke-width: 0.8"/>
      </g>
     </g>
     <g id="text_12">
      <!-- 0.55 -->
      <g transform="translate(33.1 284.421717)scale(0.1 -0.1)">
       <defs>
        <path id="NimbusRoman-Regular-2e" d="M 800 640 
C 608 640 448 480 448 275 
C 448 90 608 -70 794 -70 
C 992 -70 1158 83 1158 275 
C 1158 474 992 640 800 640 
z
" transform="scale(0.015625)"/>
       </defs>
       <use xlink:href="#NimbusRoman-Regular-30"/>
       <use xlink:href="#NimbusRoman-Regular-2e" x="49.999985"/>
       <use xlink:href="#NimbusRoman-Regular-35" x="74.999969"/>
       <use xlink:href="#NimbusRoman-Regular-35" x="124.999954"/>
      </g>
     </g>
    </g>
    <g id="ytick_2">
     <g id="line2d_23">
      <path d="M 57.6 251.007608 
L 414.72 251.007608 
" clip-path="url(#p6880478b1b)" style="fill: none; stroke: #b0b0b0; stroke-opacity: 0.2; stroke-width: 0.8; stroke-linecap: square"/>
     </g>
     <g id="line2d_24">
      <g>
       <use xlink:href="#m185c3e712f" x="57.6" y="251.007608" style="stroke: #000000; stroke-width: 0.8"/>
      </g>
     </g>
     <g id="text_13">
      <!-- 0.60 -->
      <g transform="translate(33.1 254.422452)scale(0.1 -0.1)">
       <use xlink:href="#NimbusRoman-Regular-30"/>
       <use xlink:href="#NimbusRoman-Regular-2e" x="49.999985"/>
       <use xlink:href="#NimbusRoman-Regular-36" x="74.999969"/>
       <use xlink:href="#NimbusRoman-Regular-30" x="124.999954"/>
      </g>
     </g>
    </g>
    <g id="ytick_3">
     <g id="line2d_25">
      <path d="M 57.6 221.008343 
L 414.72 221.008343 
" clip-path="url(#p6880478b1b)" style="fill: none; stroke: #b0b0b0; stroke-opacity: 0.2; stroke-width: 0.8; stroke-linecap: square"/>
     </g>
     <g id="line2d_26">
      <g>
       <use xlink:href="#m185c3e712f" x="57.6" y="221.008343" style="stroke: #000000; stroke-width: 0.8"/>
      </g>
     </g>
     <g id="text_14">
      <!-- 0.65 -->
      <g transform="translate(33.1 224.423187)scale(0.1 -0.1)">
       <use xlink:href="#NimbusRoman-Regular-30"/>
       <use xlink:href="#NimbusRoman-Regular-2e" x="49.999985"/>
       <use xlink:href="#NimbusRoman-Regular-36" x="74.999969"/>
       <use xlink:href="#NimbusRoman-Regular-35" x="124.999954"/>
      </g>
     </g>
    </g>
    <g id="ytick_4">
     <g id="line2d_27">
      <path d="M 57.6 191.009078 
L 414.72 191.009078 
" clip-path="url(#p6880478b1b)" style="fill: none; stroke: #b0b0b0; stroke-opacity: 0.2; stroke-width: 0.8; stroke-linecap: square"/>
     </g>
     <g id="line2d_28">
      <g>
       <use xlink:href="#m185c3e712f" x="57.6" y="191.009078" style="stroke: #000000; stroke-width: 0.8"/>
      </g>
     </g>
     <g id="text_15">
      <!-- 0.70 -->
      <g transform="translate(33.1 194.423922)scale(0.1 -0.1)">
       <use xlink:href="#NimbusRoman-Regular-30"/>
       <use xlink:href="#NimbusRoman-Regular-2e" x="49.999985"/>
       <use xlink:href="#NimbusRoman-Regular-37" x="74.999969"/>
       <use xlink:href="#NimbusRoman-Regular-30" x="124.999954"/>
      </g>
     </g>
    </g>
    <g id="ytick_5">
     <g id="line2d_29">
      <path d="M 57.6 161.009813 
L 414.72 161.009813 
" clip-path="url(#p6880478b1b)" style="fill: none; stroke: #b0b0b0; stroke-opacity: 0.2; stroke-width: 0.8; stroke-linecap: square"/>
     </g>
     <g id="line2d_30">
      <g>
       <use xlink:href="#m185c3e712f" x="57.6" y="161.009813" style="stroke: #000000; stroke-width: 0.8"/>
      </g>
     </g>
     <g id="text_16">
      <!-- 0.75 -->
      <g transform="translate(33.1 164.424656)scale(0.1 -0.1)">
       <use xlink:href="#NimbusRoman-Regular-30"/>
       <use xlink:href="#NimbusRoman-Regular-2e" x="49.999985"/>
       <use xlink:href="#NimbusRoman-Regular-37" x="74.999969"/>
       <use xlink:href="#NimbusRoman-Regular-35" x="124.999954"/>
      </g>
     </g>
    </g>
    <g id="ytick_6">
     <g id="line2d_31">
      <path d="M 57.6 131.010547 
L 414.72 131.010547 
" clip-path="url(#p6880478b1b)" style="fill: none; stroke: #b0b0b0; stroke-opacity: 0.2; stroke-width: 0.8; stroke-linecap: square"/>
     </g>
     <g id="line2d_32">
      <g>
       <use xlink:href="#m185c3e712f" x="57.6" y="131.010547" style="stroke: #000000; stroke-width: 0.8"/>
      </g>
     </g>
     <g id="text_17">
      <!-- 0.80 -->
      <g transform="translate(33.1 134.425391)scale(0.1 -0.1)">
       <use xlink:href="#NimbusRoman-Regular-30"/>
       <use xlink:href="#NimbusRoman-Regular-2e" x="49.999985"/>
       <use xlink:href="#NimbusRoman-Regular-38" x="74.999969"/>
       <use xlink:href="#NimbusRoman-Regular-30" x="124.999954"/>
      </g>
     </g>
    </g>
    <g id="ytick_7">
     <g id="line2d_33">
      <path d="M 57.6 101.011282 
L 414.72 101.011282 
" clip-path="url(#p6880478b1b)" style="fill: none; stroke: #b0b0b0; stroke-opacity: 0.2; stroke-width: 0.8; stroke-linecap: square"/>
     </g>
     <g id="line2d_34">
      <g>
       <use xlink:href="#m185c3e712f" x="57.6" y="101.011282" style="stroke: #000000; stroke-width: 0.8"/>
      </g>
     </g>
     <g id="text_18">
      <!-- 0.85 -->
      <g transform="translate(33.1 104.426126)scale(0.1 -0.1)">
       <use xlink:href="#NimbusRoman-Regular-30"/>
       <use xlink:href="#NimbusRoman-Regular-2e" x="49.999985"/>
       <use xlink:href="#NimbusRoman-Regular-38" x="74.999969"/>
       <use xlink:href="#NimbusRoman-Regular-35" x="124.999954"/>
      </g>
     </g>
    </g>
    <g id="ytick_8">
     <g id="line2d_35">
      <path d="M 57.6 71.012017 
L 414.72 71.012017 
" clip-path="url(#p6880478b1b)" style="fill: none; stroke: #b0b0b0; stroke-opacity: 0.2; stroke-width: 0.8; stroke-linecap: square"/>
     </g>
     <g id="line2d_36">
      <g>
       <use xlink:href="#m185c3e712f" x="57.6" y="71.012017" style="stroke: #000000; stroke-width: 0.8"/>
      </g>
     </g>
     <g id="text_19">
      <!-- 0.90 -->
      <g transform="translate(33.1 74.426861)scale(0.1 -0.1)">
       <use xlink:href="#NimbusRoman-Regular-30"/>
       <use xlink:href="#NimbusRoman-Regular-2e" x="49.999985"/>
       <use xlink:href="#NimbusRoman-Regular-39" x="74.999969"/>
       <use xlink:href="#NimbusRoman-Regular-30" x="124.999954"/>
      </g>
     </g>
    </g>
    <g id="text_20">
     <!-- Accuracy -->
     <g transform="translate(26.920313 193.68425)rotate(-90)scale(0.1 -0.1)">
      <defs>
       <path id="NimbusRoman-Regular-41" d="M 4518 122 
C 4230 141 4166 205 3942 678 
L 2349 4314 
L 2221 4314 
L 890 1171 
C 480 237 403 134 96 122 
L 96 0 
L 1363 0 
L 1363 122 
C 1056 122 928 198 928 384 
C 928 461 947 550 979 634 
L 1274 1382 
L 2950 1382 
L 3213 768 
C 3290 595 3334 429 3334 339 
C 3334 179 3226 128 2886 122 
L 2886 0 
L 4518 0 
L 4518 122 
z
M 1382 1645 
L 2118 3405 
L 2861 1645 
L 1382 1645 
z
" transform="scale(0.015625)"/>
       <path id="NimbusRoman-Regular-63" d="M 2547 998 
C 2240 550 2010 397 1645 397 
C 1056 397 653 909 653 1645 
C 653 2310 1005 2758 1523 2758 
C 1754 2758 1837 2694 1901 2451 
L 1939 2310 
C 1990 2125 2106 2016 2246 2016 
C 2413 2016 2547 2138 2547 2285 
C 2547 2643 2099 2944 1562 2944 
C 1248 2944 922 2816 659 2586 
C 339 2304 160 1869 160 1357 
C 160 531 666 -64 1376 -64 
C 1664 -64 1920 38 2150 237 
C 2323 384 2445 563 2637 941 
L 2547 998 
z
" transform="scale(0.015625)"/>
       <path id="NimbusRoman-Regular-75" d="M 3066 320 
L 3034 320 
C 2720 333 2675 384 2669 685 
L 2669 2880 
L 1658 2880 
L 1658 2771 
C 2054 2752 2131 2688 2131 2368 
L 2131 864 
C 2131 685 2099 595 2010 525 
C 1837 384 1638 307 1446 307 
C 1197 307 992 525 992 794 
L 992 2880 
L 58 2880 
L 58 2790 
C 358 2778 448 2688 454 2381 
L 454 768 
C 454 262 762 -64 1229 -64 
C 1466 -64 1715 38 1888 211 
L 2163 486 
L 2163 -45 
L 2189 -58 
C 2509 70 2739 141 3066 230 
L 3066 320 
z
" transform="scale(0.015625)"/>
       <path id="NimbusRoman-Regular-79" d="M 3040 2880 
L 2176 2880 
L 2176 2784 
C 2381 2784 2483 2726 2483 2624 
C 2483 2598 2477 2560 2458 2515 
L 1837 749 
L 1101 2368 
C 1062 2458 1037 2547 1037 2611 
C 1037 2726 1133 2771 1408 2784 
L 1408 2880 
L 90 2880 
L 90 2790 
C 256 2765 365 2694 416 2586 
L 1146 1011 
C 1222 838 1229 832 1261 768 
C 1440 448 1542 211 1542 115 
C 1542 13 1395 -378 1286 -576 
C 1190 -736 1056 -858 966 -858 
C 928 -858 870 -845 800 -813 
C 685 -768 570 -742 467 -742 
C 314 -742 192 -864 192 -1024 
C 192 -1235 390 -1395 666 -1395 
C 1101 -1395 1395 -1043 1747 -115 
L 2733 2496 
C 2816 2701 2886 2765 3040 2784 
L 3040 2880 
z
" transform="scale(0.015625)"/>
      </defs>
      <use xlink:href="#NimbusRoman-Regular-41"/>
      <use xlink:href="#NimbusRoman-Regular-63" x="72.199982"/>
      <use xlink:href="#NimbusRoman-Regular-63" x="116.599976"/>
      <use xlink:href="#NimbusRoman-Regular-75" x="160.999969"/>
      <use xlink:href="#NimbusRoman-Regular-72" x="210.999954"/>
      <use xlink:href="#NimbusRoman-Regular-61" x="244.299942"/>
      <use xlink:href="#NimbusRoman-Regular-63" x="288.699936"/>
      <use xlink:href="#NimbusRoman-Regular-79" x="333.09993"/>
     </g>
    </g>
   </g>
   <g id="line2d_37">
    <path d="M 73.832727 189.231344 
L 109.905455 133.306788 
L 145.978182 129.862427 
L 182.050909 96.8262 
L 218.123636 109.677737 
L 254.196364 90.974491 
L 290.269091 91.604105 
L 326.341818 97.49285 
L 362.414545 107.196316 
L 398.487273 81.789531 
" clip-path="url(#p6880478b1b)" style="fill: none; stroke: #0000ff; stroke-width: 1.5; stroke-linecap: square"/>
    <defs>
     <path id="m2d3312f8ff" d="M 0 3 
C 0.795609 3 1.55874 2.683901 2.12132 2.12132 
C 2.683901 1.55874 3 0.795609 3 0 
C 3 -0.795609 2.683901 -1.55874 2.12132 -2.12132 
C 1.55874 -2.683901 0.795609 -3 0 -3 
C -0.795609 -3 -1.55874 -2.683901 -2.12132 -2.12132 
C -2.683901 -1.55874 -3 -0.795609 -3 0 
C -3 0.795609 -2.683901 1.55874 -2.12132 2.12132 
C -1.55874 2.683901 -0.795609 3 0 3 
z
" style="stroke: #0000ff"/>
    </defs>
    <g clip-path="url(#p6880478b1b)">
     <use xlink:href="#m2d3312f8ff" x="73.832727" y="189.231344" style="fill: #0000ff; stroke: #0000ff"/>
     <use xlink:href="#m2d3312f8ff" x="109.905455" y="133.306788" style="fill: #0000ff; stroke: #0000ff"/>
     <use xlink:href="#m2d3312f8ff" x="145.978182" y="129.862427" style="fill: #0000ff; stroke: #0000ff"/>
     <use xlink:href="#m2d3312f8ff" x="182.050909" y="96.8262" style="fill: #0000ff; stroke: #0000ff"/>
     <use xlink:href="#m2d3312f8ff" x="218.123636" y="109.677737" style="fill: #0000ff; stroke: #0000ff"/>
     <use xlink:href="#m2d3312f8ff" x="254.196364" y="90.974491" style="fill: #0000ff; stroke: #0000ff"/>
     <use xlink:href="#m2d3312f8ff" x="290.269091" y="91.604105" style="fill: #0000ff; stroke: #0000ff"/>
     <use xlink:href="#m2d3312f8ff" x="326.341818" y="97.49285" style="fill: #0000ff; stroke: #0000ff"/>
     <use xlink:href="#m2d3312f8ff" x="362.414545" y="107.196316" style="fill: #0000ff; stroke: #0000ff"/>
     <use xlink:href="#m2d3312f8ff" x="398.487273" y="81.789531" style="fill: #0000ff; stroke: #0000ff"/>
    </g>
   </g>
   <g id="line2d_38">
    <path d="M 73.832727 262.970278 
L 109.905455 156.084007 
L 145.978182 121.751515 
L 182.050909 109.640701 
L 218.123636 78.419243 
L 254.196364 118.455299 
L 290.269091 93.529984 
L 326.341818 87.715312 
L 362.414545 58.753058 
L 398.487273 68.715777 
" clip-path="url(#p6880478b1b)" style="fill: none; stroke: #008000; stroke-width: 1.5; stroke-linecap: square"/>
    <defs>
     <path id="m09f063457a" d="M -0 3 
L 3 -3 
L -3 -3 
z
" style="stroke: #008000; stroke-linejoin: miter"/>
    </defs>
    <g clip-path="url(#p6880478b1b)">
     <use xlink:href="#m09f063457a" x="73.832727" y="262.970278" style="fill: #008000; stroke: #008000; stroke-linejoin: miter"/>
     <use xlink:href="#m09f063457a" x="109.905455" y="156.084007" style="fill: #008000; stroke: #008000; stroke-linejoin: miter"/>
     <use xlink:href="#m09f063457a" x="145.978182" y="121.751515" style="fill: #008000; stroke: #008000; stroke-linejoin: miter"/>
     <use xlink:href="#m09f063457a" x="182.050909" y="109.640701" style="fill: #008000; stroke: #008000; stroke-linejoin: miter"/>
     <use xlink:href="#m09f063457a" x="218.123636" y="78.419243" style="fill: #008000; stroke: #008000; stroke-linejoin: miter"/>
     <use xlink:href="#m09f063457a" x="254.196364" y="118.455299" style="fill: #008000; stroke: #008000; stroke-linejoin: miter"/>
     <use xlink:href="#m09f063457a" x="290.269091" y="93.529984" style="fill: #008000; stroke: #008000; stroke-linejoin: miter"/>
     <use xlink:href="#m09f063457a" x="326.341818" y="87.715312" style="fill: #008000; stroke: #008000; stroke-linejoin: miter"/>
     <use xlink:href="#m09f063457a" x="362.414545" y="58.753058" style="fill: #008000; stroke: #008000; stroke-linejoin: miter"/>
     <use xlink:href="#m09f063457a" x="398.487273" y="68.715777" style="fill: #008000; stroke: #008000; stroke-linejoin: miter"/>
    </g>
   </g>
   <g id="line2d_39">
    <path d="M 73.832727 217.638055 
L 109.905455 156.676585 
L 145.978182 131.566089 
L 182.050909 133.677149 
L 218.123636 117.788649 
L 254.196364 118.15901 
L 290.269091 101.455716 
L 326.341818 102.418655 
L 362.414545 149.417504 
L 398.487273 99.715018 
" clip-path="url(#p6880478b1b)" style="fill: none; stroke: #00bfbf; stroke-width: 1.5; stroke-linecap: square"/>
    <defs>
     <path id="m85cfb0c5f5" d="M -3 3 
L 3 3 
L 3 -3 
L -3 -3 
z
" style="stroke: #00bfbf; stroke-linejoin: miter"/>
    </defs>
    <g clip-path="url(#p6880478b1b)">
     <use xlink:href="#m85cfb0c5f5" x="73.832727" y="217.638055" style="fill: #00bfbf; stroke: #00bfbf; stroke-linejoin: miter"/>
     <use xlink:href="#m85cfb0c5f5" x="109.905455" y="156.676585" style="fill: #00bfbf; stroke: #00bfbf; stroke-linejoin: miter"/>
     <use xlink:href="#m85cfb0c5f5" x="145.978182" y="131.566089" style="fill: #00bfbf; stroke: #00bfbf; stroke-linejoin: miter"/>
     <use xlink:href="#m85cfb0c5f5" x="182.050909" y="133.677149" style="fill: #00bfbf; stroke: #00bfbf; stroke-linejoin: miter"/>
     <use xlink:href="#m85cfb0c5f5" x="218.123636" y="117.788649" style="fill: #00bfbf; stroke: #00bfbf; stroke-linejoin: miter"/>
     <use xlink:href="#m85cfb0c5f5" x="254.196364" y="118.15901" style="fill: #00bfbf; stroke: #00bfbf; stroke-linejoin: miter"/>
     <use xlink:href="#m85cfb0c5f5" x="290.269091" y="101.455716" style="fill: #00bfbf; stroke: #00bfbf; stroke-linejoin: miter"/>
     <use xlink:href="#m85cfb0c5f5" x="326.341818" y="102.418655" style="fill: #00bfbf; stroke: #00bfbf; stroke-linejoin: miter"/>
     <use xlink:href="#m85cfb0c5f5" x="362.414545" y="149.417504" style="fill: #00bfbf; stroke: #00bfbf; stroke-linejoin: miter"/>
     <use xlink:href="#m85cfb0c5f5" x="398.487273" y="99.715018" style="fill: #00bfbf; stroke: #00bfbf; stroke-linejoin: miter"/>
    </g>
   </g>
   <g id="line2d_40">
    <path d="M 73.832727 194.04604 
L 109.905455 154.009984 
L 145.978182 131.195728 
L 182.050909 109.344412 
L 218.123636 111.196218 
L 254.196364 91.789286 
L 290.269091 91.974467 
L 326.341818 73.160113 
L 362.414545 67.086187 
L 398.487273 69.049102 
" clip-path="url(#p6880478b1b)" style="fill: none; stroke: #bf00bf; stroke-width: 1.5; stroke-linecap: square"/>
    <defs>
     <path id="m5e2d5f6415" d="M 0 -3 
L -2.85317 -0.927051 
L -1.763356 2.427051 
L 1.763356 2.427051 
L 2.85317 -0.927051 
z
" style="stroke: #bf00bf; stroke-linejoin: miter"/>
    </defs>
    <g clip-path="url(#p6880478b1b)">
     <use xlink:href="#m5e2d5f6415" x="73.832727" y="194.04604" style="fill: #bf00bf; stroke: #bf00bf; stroke-linejoin: miter"/>
     <use xlink:href="#m5e2d5f6415" x="109.905455" y="154.009984" style="fill: #bf00bf; stroke: #bf00bf; stroke-linejoin: miter"/>
     <use xlink:href="#m5e2d5f6415" x="145.978182" y="131.195728" style="fill: #bf00bf; stroke: #bf00bf; stroke-linejoin: miter"/>
     <use xlink:href="#m5e2d5f6415" x="182.050909" y="109.344412" style="fill: #bf00bf; stroke: #bf00bf; stroke-linejoin: miter"/>
     <use xlink:href="#m5e2d5f6415" x="218.123636" y="111.196218" style="fill: #bf00bf; stroke: #bf00bf; stroke-linejoin: miter"/>
     <use xlink:href="#m5e2d5f6415" x="254.196364" y="91.789286" style="fill: #bf00bf; stroke: #bf00bf; stroke-linejoin: miter"/>
     <use xlink:href="#m5e2d5f6415" x="290.269091" y="91.974467" style="fill: #bf00bf; stroke: #bf00bf; stroke-linejoin: miter"/>
     <use xlink:href="#m5e2d5f6415" x="326.341818" y="73.160113" style="fill: #bf00bf; stroke: #bf00bf; stroke-linejoin: miter"/>
     <use xlink:href="#m5e2d5f6415" x="362.414545" y="67.086187" style="fill: #bf00bf; stroke: #bf00bf; stroke-linejoin: miter"/>
     <use xlink:href="#m5e2d5f6415" x="398.487273" y="69.049102" style="fill: #bf00bf; stroke: #bf00bf; stroke-linejoin: miter"/>
    </g>
   </g>
   <g id="line2d_41">
    <path d="M 73.832727 192.564595 
L 109.905455 130.010572 
L 145.978182 115.233156 
L 182.050909 158.380247 
L 218.123636 110.455495 
L 254.196364 134.788233 
L 290.269091 95.381791 
L 326.341818 75.456353 
L 362.414545 76.974834 
L 398.487273 71.641631 
" clip-path="url(#p6880478b1b)" style="fill: none; stroke: #bfbf00; stroke-width: 1.5; stroke-linecap: square"/>
    <defs>
     <path id="m6857f2c40c" d="M 0 -3 
L -0.673542 -0.927051 
L -2.85317 -0.927051 
L -1.089814 0.354102 
L -1.763356 2.427051 
L -0 1.145898 
L 1.763356 2.427051 
L 1.089814 0.354102 
L 2.85317 -0.927051 
L 0.673542 -0.927051 
z
" style="stroke: #bfbf00; stroke-linejoin: bevel"/>
    </defs>
    <g clip-path="url(#p6880478b1b)">
     <use xlink:href="#m6857f2c40c" x="73.832727" y="192.564595" style="fill: #bfbf00; stroke: #bfbf00; stroke-linejoin: bevel"/>
     <use xlink:href="#m6857f2c40c" x="109.905455" y="130.010572" style="fill: #bfbf00; stroke: #bfbf00; stroke-linejoin: bevel"/>
     <use xlink:href="#m6857f2c40c" x="145.978182" y="115.233156" style="fill: #bfbf00; stroke: #bfbf00; stroke-linejoin: bevel"/>
     <use xlink:href="#m6857f2c40c" x="182.050909" y="158.380247" style="fill: #bfbf00; stroke: #bfbf00; stroke-linejoin: bevel"/>
     <use xlink:href="#m6857f2c40c" x="218.123636" y="110.455495" style="fill: #bfbf00; stroke: #bfbf00; stroke-linejoin: bevel"/>
     <use xlink:href="#m6857f2c40c" x="254.196364" y="134.788233" style="fill: #bfbf00; stroke: #bfbf00; stroke-linejoin: bevel"/>
     <use xlink:href="#m6857f2c40c" x="290.269091" y="95.381791" style="fill: #bfbf00; stroke: #bfbf00; stroke-linejoin: bevel"/>
     <use xlink:href="#m6857f2c40c" x="326.341818" y="75.456353" style="fill: #bfbf00; stroke: #bfbf00; stroke-linejoin: bevel"/>
     <use xlink:href="#m6857f2c40c" x="362.414545" y="76.974834" style="fill: #bfbf00; stroke: #bfbf00; stroke-linejoin: bevel"/>
     <use xlink:href="#m6857f2c40c" x="398.487273" y="71.641631" style="fill: #bfbf00; stroke: #bfbf00; stroke-linejoin: bevel"/>
    </g>
   </g>
   <g id="line2d_42">
    <path d="M 73.832727 295.488 
L 109.905455 171.861399 
L 145.978182 105.714871 
L 182.050909 87.493095 
L 218.123636 68.826885 
L 254.196364 94.678104 
L 290.269091 71.27127 
L 326.341818 62.493707 
L 362.414545 65.271417 
L 398.487273 53.568 
" clip-path="url(#p6880478b1b)" style="fill: none; stroke: #ffa500; stroke-width: 1.5; stroke-linecap: square"/>
    <defs>
     <path id="m31162fbdf8" d="M 0 -3 
L -2.598076 -1.5 
L -2.598076 1.5 
L -0 3 
L 2.598076 1.5 
L 2.598076 -1.5 
z
" style="stroke: #ffa500; stroke-linejoin: miter"/>
    </defs>
    <g clip-path="url(#p6880478b1b)">
     <use xlink:href="#m31162fbdf8" x="73.832727" y="295.488" style="fill: #ffa500; stroke: #ffa500; stroke-linejoin: miter"/>
     <use xlink:href="#m31162fbdf8" x="109.905455" y="171.861399" style="fill: #ffa500; stroke: #ffa500; stroke-linejoin: miter"/>
     <use xlink:href="#m31162fbdf8" x="145.978182" y="105.714871" style="fill: #ffa500; stroke: #ffa500; stroke-linejoin: miter"/>
     <use xlink:href="#m31162fbdf8" x="182.050909" y="87.493095" style="fill: #ffa500; stroke: #ffa500; stroke-linejoin: miter"/>
     <use xlink:href="#m31162fbdf8" x="218.123636" y="68.826885" style="fill: #ffa500; stroke: #ffa500; stroke-linejoin: miter"/>
     <use xlink:href="#m31162fbdf8" x="254.196364" y="94.678104" style="fill: #ffa500; stroke: #ffa500; stroke-linejoin: miter"/>
     <use xlink:href="#m31162fbdf8" x="290.269091" y="71.27127" style="fill: #ffa500; stroke: #ffa500; stroke-linejoin: miter"/>
     <use xlink:href="#m31162fbdf8" x="326.341818" y="62.493707" style="fill: #ffa500; stroke: #ffa500; stroke-linejoin: miter"/>
     <use xlink:href="#m31162fbdf8" x="362.414545" y="65.271417" style="fill: #ffa500; stroke: #ffa500; stroke-linejoin: miter"/>
     <use xlink:href="#m31162fbdf8" x="398.487273" y="53.568" style="fill: #ffa500; stroke: #ffa500; stroke-linejoin: miter"/>
    </g>
   </g>
   <g id="line2d_43">
    <path d="M 73.832727 210.971552 
L 109.905455 145.936108 
L 145.978182 123.381105 
L 182.050909 118.899733 
L 218.123636 114.159108 
L 254.196364 111.714724 
L 290.269091 105.863015 
L 326.341818 90.826347 
L 362.414545 93.307767 
L 398.487273 89.307865 
" clip-path="url(#p6880478b1b)" style="fill: none; stroke: #ffc0cb; stroke-width: 1.5; stroke-linecap: square"/>
    <defs>
     <path id="m315e11255c" d="M -1.5 3 
L 0 1.5 
L 1.5 3 
L 3 1.5 
L 1.5 0 
L 3 -1.5 
L 1.5 -3 
L 0 -1.5 
L -1.5 -3 
L -3 -1.5 
L -1.5 0 
L -3 1.5 
z
" style="stroke: #ffc0cb; stroke-linejoin: miter"/>
    </defs>
    <g clip-path="url(#p6880478b1b)">
     <use xlink:href="#m315e11255c" x="73.832727" y="210.971552" style="fill: #ffc0cb; stroke: #ffc0cb; stroke-linejoin: miter"/>
     <use xlink:href="#m315e11255c" x="109.905455" y="145.936108" style="fill: #ffc0cb; stroke: #ffc0cb; stroke-linejoin: miter"/>
     <use xlink:href="#m315e11255c" x="145.978182" y="123.381105" style="fill: #ffc0cb; stroke: #ffc0cb; stroke-linejoin: miter"/>
     <use xlink:href="#m315e11255c" x="182.050909" y="118.899733" style="fill: #ffc0cb; stroke: #ffc0cb; stroke-linejoin: miter"/>
     <use xlink:href="#m315e11255c" x="218.123636" y="114.159108" style="fill: #ffc0cb; stroke: #ffc0cb; stroke-linejoin: miter"/>
     <use xlink:href="#m315e11255c" x="254.196364" y="111.714724" style="fill: #ffc0cb; stroke: #ffc0cb; stroke-linejoin: miter"/>
     <use xlink:href="#m315e11255c" x="290.269091" y="105.863015" style="fill: #ffc0cb; stroke: #ffc0cb; stroke-linejoin: miter"/>
     <use xlink:href="#m315e11255c" x="326.341818" y="90.826347" style="fill: #ffc0cb; stroke: #ffc0cb; stroke-linejoin: miter"/>
     <use xlink:href="#m315e11255c" x="362.414545" y="93.307767" style="fill: #ffc0cb; stroke: #ffc0cb; stroke-linejoin: miter"/>
     <use xlink:href="#m315e11255c" x="398.487273" y="89.307865" style="fill: #ffc0cb; stroke: #ffc0cb; stroke-linejoin: miter"/>
    </g>
   </g>
   <g id="line2d_44">
    <path d="M 73.832727 213.267792 
L 109.905455 117.49236 
L 145.978182 104.603787 
L 182.050909 129.529102 
L 218.123636 70.641656 
L 254.196364 102.529764 
L 290.269091 104.085281 
L 326.341818 88.344926 
L 362.414545 81.345097 
L 398.487273 54.827228 
" clip-path="url(#p6880478b1b)" style="fill: none; stroke: #800080; stroke-width: 1.5; stroke-linecap: square"/>
    <defs>
     <path id="md1007e4995" d="M -0 4.242641 
L 2.545584 0 
L 0 -4.242641 
L -2.545584 -0 
z
" style="stroke: #800080; stroke-linejoin: miter"/>
    </defs>
    <g clip-path="url(#p6880478b1b)">
     <use xlink:href="#md1007e4995" x="73.832727" y="213.267792" style="fill: #800080; stroke: #800080; stroke-linejoin: miter"/>
     <use xlink:href="#md1007e4995" x="109.905455" y="117.49236" style="fill: #800080; stroke: #800080; stroke-linejoin: miter"/>
     <use xlink:href="#md1007e4995" x="145.978182" y="104.603787" style="fill: #800080; stroke: #800080; stroke-linejoin: miter"/>
     <use xlink:href="#md1007e4995" x="182.050909" y="129.529102" style="fill: #800080; stroke: #800080; stroke-linejoin: miter"/>
     <use xlink:href="#md1007e4995" x="218.123636" y="70.641656" style="fill: #800080; stroke: #800080; stroke-linejoin: miter"/>
     <use xlink:href="#md1007e4995" x="254.196364" y="102.529764" style="fill: #800080; stroke: #800080; stroke-linejoin: miter"/>
     <use xlink:href="#md1007e4995" x="290.269091" y="104.085281" style="fill: #800080; stroke: #800080; stroke-linejoin: miter"/>
     <use xlink:href="#md1007e4995" x="326.341818" y="88.344926" style="fill: #800080; stroke: #800080; stroke-linejoin: miter"/>
     <use xlink:href="#md1007e4995" x="362.414545" y="81.345097" style="fill: #800080; stroke: #800080; stroke-linejoin: miter"/>
     <use xlink:href="#md1007e4995" x="398.487273" y="54.827228" style="fill: #800080; stroke: #800080; stroke-linejoin: miter"/>
    </g>
   </g>
   <g id="line2d_45">
    <path d="M 73.832727 211.193769 
L 109.905455 142.158423 
L 145.978182 146.602758 
L 182.050909 113.344314 
L 218.123636 108.566653 
L 254.196364 94.937357 
L 290.269091 86.122758 
L 326.341818 89.826371 
L 362.414545 90.233769 
L 398.487273 85.493144 
" clip-path="url(#p6880478b1b)" style="fill: none; stroke: #a52a2a; stroke-width: 1.5; stroke-linecap: square"/>
    <defs>
     <path id="mb816191cd5" d="M -1 3 
L 1 3 
L 1 1 
L 3 1 
L 3 -1 
L 1 -1 
L 1 -3 
L -1 -3 
L -1 -1 
L -3 -1 
L -3 1 
L -1 1 
z
" style="stroke: #a52a2a; stroke-linejoin: miter"/>
    </defs>
    <g clip-path="url(#p6880478b1b)">
     <use xlink:href="#mb816191cd5" x="73.832727" y="211.193769" style="fill: #a52a2a; stroke: #a52a2a; stroke-linejoin: miter"/>
     <use xlink:href="#mb816191cd5" x="109.905455" y="142.158423" style="fill: #a52a2a; stroke: #a52a2a; stroke-linejoin: miter"/>
     <use xlink:href="#mb816191cd5" x="145.978182" y="146.602758" style="fill: #a52a2a; stroke: #a52a2a; stroke-linejoin: miter"/>
     <use xlink:href="#mb816191cd5" x="182.050909" y="113.344314" style="fill: #a52a2a; stroke: #a52a2a; stroke-linejoin: miter"/>
     <use xlink:href="#mb816191cd5" x="218.123636" y="108.566653" style="fill: #a52a2a; stroke: #a52a2a; stroke-linejoin: miter"/>
     <use xlink:href="#mb816191cd5" x="254.196364" y="94.937357" style="fill: #a52a2a; stroke: #a52a2a; stroke-linejoin: miter"/>
     <use xlink:href="#mb816191cd5" x="290.269091" y="86.122758" style="fill: #a52a2a; stroke: #a52a2a; stroke-linejoin: miter"/>
     <use xlink:href="#mb816191cd5" x="326.341818" y="89.826371" style="fill: #a52a2a; stroke: #a52a2a; stroke-linejoin: miter"/>
     <use xlink:href="#mb816191cd5" x="362.414545" y="90.233769" style="fill: #a52a2a; stroke: #a52a2a; stroke-linejoin: miter"/>
     <use xlink:href="#mb816191cd5" x="398.487273" y="85.493144" style="fill: #a52a2a; stroke: #a52a2a; stroke-linejoin: miter"/>
    </g>
   </g>
   <g id="line2d_46">
    <path d="M 73.832727 206.453144 
L 109.905455 143.565795 
L 145.978182 120.825612 
L 182.050909 126.195851 
L 218.123636 111.011037 
L 254.196364 92.381864 
L 290.269091 104.122317 
L 326.341818 91.307816 
L 362.414545 90.826347 
L 398.487273 75.011919 
" clip-path="url(#p6880478b1b)" style="fill: none; stroke: #ff0000; stroke-width: 1.5; stroke-linecap: square"/>
    <defs>
     <path id="m6da3a64b7c" d="M 0 -3 
L -3 3 
L 3 3 
z
" style="stroke: #ff0000; stroke-linejoin: miter"/>
    </defs>
    <g clip-path="url(#p6880478b1b)">
     <use xlink:href="#m6da3a64b7c" x="73.832727" y="206.453144" style="fill: #ff0000; stroke: #ff0000; stroke-linejoin: miter"/>
     <use xlink:href="#m6da3a64b7c" x="109.905455" y="143.565795" style="fill: #ff0000; stroke: #ff0000; stroke-linejoin: miter"/>
     <use xlink:href="#m6da3a64b7c" x="145.978182" y="120.825612" style="fill: #ff0000; stroke: #ff0000; stroke-linejoin: miter"/>
     <use xlink:href="#m6da3a64b7c" x="182.050909" y="126.195851" style="fill: #ff0000; stroke: #ff0000; stroke-linejoin: miter"/>
     <use xlink:href="#m6da3a64b7c" x="218.123636" y="111.011037" style="fill: #ff0000; stroke: #ff0000; stroke-linejoin: miter"/>
     <use xlink:href="#m6da3a64b7c" x="254.196364" y="92.381864" style="fill: #ff0000; stroke: #ff0000; stroke-linejoin: miter"/>
     <use xlink:href="#m6da3a64b7c" x="290.269091" y="104.122317" style="fill: #ff0000; stroke: #ff0000; stroke-linejoin: miter"/>
     <use xlink:href="#m6da3a64b7c" x="326.341818" y="91.307816" style="fill: #ff0000; stroke: #ff0000; stroke-linejoin: miter"/>
     <use xlink:href="#m6da3a64b7c" x="362.414545" y="90.826347" style="fill: #ff0000; stroke: #ff0000; stroke-linejoin: miter"/>
     <use xlink:href="#m6da3a64b7c" x="398.487273" y="75.011919" style="fill: #ff0000; stroke: #ff0000; stroke-linejoin: miter"/>
    </g>
   </g>
   <g id="patch_3">
    <path d="M 57.6 307.584 
L 57.6 41.472 
" style="fill: none; stroke: #000000; stroke-width: 0.8; stroke-linejoin: miter; stroke-linecap: square"/>
   </g>
   <g id="patch_4">
    <path d="M 414.72 307.584 
L 414.72 41.472 
" style="fill: none; stroke: #000000; stroke-width: 0.8; stroke-linejoin: miter; stroke-linecap: square"/>
   </g>
   <g id="patch_5">
    <path d="M 57.6 307.584 
L 414.72 307.584 
" style="fill: none; stroke: #000000; stroke-width: 0.8; stroke-linejoin: miter; stroke-linecap: square"/>
   </g>
   <g id="patch_6">
    <path d="M 57.6 41.472 
L 414.72 41.472 
" style="fill: none; stroke: #000000; stroke-width: 0.8; stroke-linejoin: miter; stroke-linecap: square"/>
   </g>
   <g id="legend_1">
    <g id="patch_7">
     <path d="M 271.8325 302.584 
L 407.72 302.584 
Q 409.72 302.584 409.72 300.584 
L 409.72 159.81525 
Q 409.72 157.81525 407.72 157.81525 
L 271.8325 157.81525 
Q 269.8325 157.81525 269.8325 159.81525 
L 269.8325 300.584 
Q 269.8325 302.584 271.8325 302.584 
z
" style="fill: #ffffff; opacity: 0.8; stroke: #cccccc; stroke-linejoin: miter"/>
    </g>
    <g id="line2d_47">
     <path d="M 273.8325 165.31525 
L 283.8325 165.31525 
L 293.8325 165.31525 
" style="fill: none; stroke: #0000ff; stroke-width: 1.5; stroke-linecap: square"/>
     <g>
      <use xlink:href="#m2d3312f8ff" x="283.8325" y="165.31525" style="fill: #0000ff; stroke: #0000ff"/>
     </g>
    </g>
    <g id="text_21">
     <!-- BALDDropout -->
     <g transform="translate(301.8325 168.81525)scale(0.1 -0.1)">
      <defs>
       <path id="NimbusRoman-Regular-42" d="M 109 4115 
C 646 4083 717 4019 723 3539 
L 723 698 
C 717 218 634 141 109 122 
L 109 0 
L 2246 0 
C 2739 0 3200 134 3437 352 
C 3667 557 3795 845 3795 1152 
C 3795 1434 3686 1690 3482 1875 
C 3290 2048 3117 2125 2701 2227 
C 3034 2310 3168 2374 3322 2509 
C 3482 2650 3578 2880 3578 3149 
C 3578 3866 3002 4237 1901 4237 
L 109 4237 
L 109 4115 
z
M 1376 2086 
C 1997 2086 2291 2048 2522 1952 
C 2886 1805 3059 1542 3059 1146 
C 3059 800 2925 550 2669 403 
C 2464 288 2202 237 1779 237 
C 1466 237 1376 294 1376 499 
L 1376 2086 
z
M 1376 2336 
L 1376 3808 
C 1382 3949 1408 3987 1517 3994 
L 1798 4000 
C 2509 4019 2925 3693 2925 3123 
C 2925 2618 2598 2349 1984 2342 
L 1376 2336 
z
" transform="scale(0.015625)"/>
       <path id="NimbusRoman-Regular-4c" d="M 1882 4237 
L 77 4237 
L 77 4115 
C 544 4083 621 4000 634 3539 
L 634 698 
C 621 237 538 147 77 122 
L 77 0 
L 3520 0 
L 3827 1114 
L 3667 1114 
C 3366 442 3091 275 2266 250 
L 1837 250 
C 1344 262 1293 282 1286 512 
L 1286 3539 
C 1299 4006 1382 4090 1882 4115 
L 1882 4237 
z
" transform="scale(0.015625)"/>
       <path id="NimbusRoman-Regular-44" d="M 102 0 
L 1920 0 
C 2662 0 3334 211 3731 570 
C 4147 947 4384 1517 4384 2138 
C 4384 2714 4198 3213 3840 3565 
C 3405 4006 2707 4237 1830 4237 
L 102 4237 
L 102 4115 
C 608 4070 659 4019 666 3539 
L 666 698 
C 659 230 582 154 102 122 
L 102 0 
z
M 1318 3750 
C 1318 3949 1382 4000 1651 4000 
C 2208 4000 2618 3898 2925 3680 
C 3424 3334 3686 2784 3686 2093 
C 3686 1338 3424 800 2906 499 
C 2579 314 2208 237 1651 237 
C 1395 237 1318 294 1318 499 
L 1318 3750 
z
" transform="scale(0.015625)"/>
       <path id="NimbusRoman-Regular-70" d="M 32 -1389 
L 1581 -1389 
L 1581 -1274 
C 1101 -1267 1024 -1203 1018 -794 
L 1018 211 
C 1248 0 1395 -64 1664 -64 
C 2426 -64 3008 653 3008 1581 
C 3008 2374 2560 2944 1939 2944 
C 1581 2944 1299 2790 1018 2438 
L 1018 2931 
L 979 2944 
C 634 2810 410 2726 58 2618 
L 58 2515 
C 115 2522 154 2522 218 2522 
C 435 2522 480 2458 480 2157 
L 480 -838 
C 480 -1178 410 -1242 32 -1280 
L 32 -1389 
z
M 1018 2138 
C 1018 2330 1376 2560 1670 2560 
C 2144 2560 2458 2074 2458 1325 
C 2458 621 2144 141 1683 141 
C 1382 141 1018 371 1018 563 
L 1018 2138 
z
" transform="scale(0.015625)"/>
      </defs>
      <use xlink:href="#NimbusRoman-Regular-42"/>
      <use xlink:href="#NimbusRoman-Regular-41" x="66.699997"/>
      <use xlink:href="#NimbusRoman-Regular-4c" x="138.899979"/>
      <use xlink:href="#NimbusRoman-Regular-44" x="199.999969"/>
      <use xlink:href="#NimbusRoman-Regular-44" x="272.199951"/>
      <use xlink:href="#NimbusRoman-Regular-72" x="344.399933"/>
      <use xlink:href="#NimbusRoman-Regular-6f" x="377.699921"/>
      <use xlink:href="#NimbusRoman-Regular-70" x="427.699905"/>
      <use xlink:href="#NimbusRoman-Regular-6f" x="477.69989"/>
      <use xlink:href="#NimbusRoman-Regular-75" x="527.699875"/>
      <use xlink:href="#NimbusRoman-Regular-74" x="577.69986"/>
     </g>
    </g>
    <g id="line2d_48">
     <path d="M 273.8325 179.485562 
L 283.8325 179.485562 
L 293.8325 179.485562 
" style="fill: none; stroke: #008000; stroke-width: 1.5; stroke-linecap: square"/>
     <g>
      <use xlink:href="#m09f063457a" x="283.8325" y="179.485562" style="fill: #008000; stroke: #008000; stroke-linejoin: miter"/>
     </g>
    </g>
    <g id="text_22">
     <!-- EntropySampling -->
     <g transform="translate(301.8325 182.985562)scale(0.1 -0.1)">
      <defs>
       <path id="NimbusRoman-Regular-45" d="M 3821 1082 
L 3642 1082 
C 3334 403 3046 243 2131 237 
L 1958 237 
C 1293 256 1286 262 1286 512 
L 1286 2093 
L 2272 2093 
C 2810 2080 2893 2003 2976 1478 
L 3123 1478 
L 3123 2963 
L 2976 2963 
C 2899 2445 2810 2368 2272 2355 
L 1286 2355 
L 1286 3776 
C 1293 3968 1318 3994 1498 3994 
L 2362 3994 
C 3104 3981 3232 3891 3334 3322 
L 3494 3322 
L 3475 4237 
L 77 4237 
L 77 4115 
C 544 4083 621 4000 634 3539 
L 634 698 
C 621 237 538 147 77 122 
L 77 0 
L 3533 0 
L 3821 1082 
z
" transform="scale(0.015625)"/>
       <path id="NimbusRoman-Regular-53" d="M 2861 4326 
L 2726 4326 
C 2701 4186 2630 4109 2522 4109 
C 2458 4109 2349 4134 2240 4186 
C 2003 4275 1766 4326 1555 4326 
C 1286 4326 1005 4218 794 4032 
C 570 3834 454 3565 454 3232 
C 454 2720 736 2362 1453 1984 
C 1914 1734 2246 1478 2406 1235 
C 2464 1152 2496 1018 2496 858 
C 2496 435 2176 141 1709 141 
C 1133 141 736 493 416 1274 
L 269 1274 
L 461 -83 
L 602 -83 
C 608 38 685 128 781 128 
C 851 128 960 102 1082 58 
C 1325 -38 1587 -90 1837 -90 
C 2579 -90 3142 416 3142 1082 
C 3142 1606 2790 2016 1946 2477 
C 1274 2842 1005 3123 1005 3475 
C 1005 3827 1274 4064 1670 4064 
C 1958 4064 2227 3942 2451 3712 
C 2650 3507 2739 3341 2842 2963 
L 3002 2963 
L 2861 4326 
z
" transform="scale(0.015625)"/>
       <path id="NimbusRoman-Regular-6d" d="M 102 0 
L 1523 0 
L 1523 96 
C 1197 102 1094 173 1088 429 
L 1088 2234 
C 1088 2246 1139 2310 1184 2355 
C 1344 2502 1619 2611 1843 2611 
C 2125 2611 2266 2387 2266 1939 
L 2266 550 
C 2253 186 2189 115 1830 96 
L 1830 0 
L 3264 0 
L 3264 96 
C 2906 96 2816 198 2803 608 
L 2803 2221 
C 2995 2496 3200 2611 3501 2611 
C 3866 2611 3981 2438 3981 1907 
L 3981 557 
C 3968 179 3930 134 3558 96 
L 3558 0 
L 4960 0 
L 4960 96 
L 4794 109 
C 4589 141 4518 237 4518 486 
L 4518 1805 
C 4518 2560 4269 2944 3776 2944 
C 3405 2944 3078 2778 2733 2406 
C 2618 2771 2400 2944 2054 2944 
C 1766 2944 1594 2861 1062 2451 
L 1062 2931 
L 1018 2944 
C 678 2822 461 2752 122 2656 
L 122 2547 
C 198 2566 256 2573 326 2573 
C 493 2573 550 2470 550 2163 
L 550 544 
C 538 186 454 96 102 96 
L 102 0 
z
" transform="scale(0.015625)"/>
       <path id="NimbusRoman-Regular-6c" d="M 134 0 
L 1645 0 
L 1645 96 
C 1242 115 1171 179 1165 538 
L 1165 4358 
L 1139 4371 
C 813 4269 576 4198 122 4090 
L 122 3987 
L 160 3987 
C 230 3994 307 4000 358 4000 
C 563 4000 627 3910 627 3610 
L 627 557 
C 621 211 531 122 134 96 
L 134 0 
z
" transform="scale(0.015625)"/>
       <path id="NimbusRoman-Regular-67" d="M 3008 2483 
L 3008 2733 
L 2515 2733 
C 2381 2733 2291 2752 2163 2797 
L 2022 2848 
C 1856 2912 1677 2944 1510 2944 
C 915 2944 442 2490 442 1901 
C 442 1498 608 1254 1037 1043 
L 870 890 
C 736 762 659 691 640 666 
C 506 525 467 454 467 346 
C 467 205 538 134 806 6 
C 346 -326 179 -538 179 -774 
C 179 -1114 672 -1395 1286 -1395 
C 1766 -1395 2266 -1229 2598 -960 
C 2842 -762 2950 -557 2950 -314 
C 2950 83 2650 346 2176 371 
L 1350 410 
C 1005 422 851 480 851 582 
C 851 710 1062 934 1235 986 
C 1466 966 1587 954 1600 954 
C 1837 954 2093 1050 2291 1222 
C 2502 1402 2598 1626 2598 1946 
C 2598 2131 2566 2278 2477 2483 
L 3008 2483 
z
M 941 -13 
C 1158 -58 1658 -96 1984 -96 
C 2560 -96 2771 -179 2771 -410 
C 2771 -781 2285 -1030 1562 -1030 
C 992 -1030 627 -845 627 -563 
C 627 -416 685 -320 941 -13 
z
M 973 2163 
C 973 2541 1152 2765 1446 2765 
C 1645 2765 1811 2656 1914 2464 
C 2035 2240 2106 1952 2106 1696 
C 2106 1338 1926 1114 1632 1114 
C 1235 1114 973 1530 973 2144 
L 973 2163 
z
" transform="scale(0.015625)"/>
      </defs>
      <use xlink:href="#NimbusRoman-Regular-45"/>
      <use xlink:href="#NimbusRoman-Regular-6e" x="61.099991"/>
      <use xlink:href="#NimbusRoman-Regular-74" x="111.099976"/>
      <use xlink:href="#NimbusRoman-Regular-72" x="138.899963"/>
      <use xlink:href="#NimbusRoman-Regular-6f" x="172.199951"/>
      <use xlink:href="#NimbusRoman-Regular-70" x="222.199936"/>
      <use xlink:href="#NimbusRoman-Regular-79" x="272.199921"/>
      <use xlink:href="#NimbusRoman-Regular-53" x="322.199905"/>
      <use xlink:href="#NimbusRoman-Regular-61" x="377.799896"/>
      <use xlink:href="#NimbusRoman-Regular-6d" x="422.19989"/>
      <use xlink:href="#NimbusRoman-Regular-70" x="499.999878"/>
      <use xlink:href="#NimbusRoman-Regular-6c" x="549.999863"/>
      <use xlink:href="#NimbusRoman-Regular-69" x="577.79985"/>
      <use xlink:href="#NimbusRoman-Regular-6e" x="605.599838"/>
      <use xlink:href="#NimbusRoman-Regular-67" x="655.599823"/>
     </g>
    </g>
    <g id="line2d_49">
     <path d="M 273.8325 193.66525 
L 283.8325 193.66525 
L 293.8325 193.66525 
" style="fill: none; stroke: #00bfbf; stroke-width: 1.5; stroke-linecap: square"/>
     <g>
      <use xlink:href="#m85cfb0c5f5" x="283.8325" y="193.66525" style="fill: #00bfbf; stroke: #00bfbf; stroke-linejoin: miter"/>
     </g>
    </g>
    <g id="text_23">
     <!-- EntropySamplingDropout -->
     <g transform="translate(301.8325 197.16525)scale(0.1 -0.1)">
      <use xlink:href="#NimbusRoman-Regular-45"/>
      <use xlink:href="#NimbusRoman-Regular-6e" x="61.099991"/>
      <use xlink:href="#NimbusRoman-Regular-74" x="111.099976"/>
      <use xlink:href="#NimbusRoman-Regular-72" x="138.899963"/>
      <use xlink:href="#NimbusRoman-Regular-6f" x="172.199951"/>
      <use xlink:href="#NimbusRoman-Regular-70" x="222.199936"/>
      <use xlink:href="#NimbusRoman-Regular-79" x="272.199921"/>
      <use xlink:href="#NimbusRoman-Regular-53" x="322.199905"/>
      <use xlink:href="#NimbusRoman-Regular-61" x="377.799896"/>
      <use xlink:href="#NimbusRoman-Regular-6d" x="422.19989"/>
      <use xlink:href="#NimbusRoman-Regular-70" x="499.999878"/>
      <use xlink:href="#NimbusRoman-Regular-6c" x="549.999863"/>
      <use xlink:href="#NimbusRoman-Regular-69" x="577.79985"/>
      <use xlink:href="#NimbusRoman-Regular-6e" x="605.599838"/>
      <use xlink:href="#NimbusRoman-Regular-67" x="655.599823"/>
      <use xlink:href="#NimbusRoman-Regular-44" x="705.599808"/>
      <use xlink:href="#NimbusRoman-Regular-72" x="777.799789"/>
      <use xlink:href="#NimbusRoman-Regular-6f" x="811.099777"/>
      <use xlink:href="#NimbusRoman-Regular-70" x="861.099762"/>
      <use xlink:href="#NimbusRoman-Regular-6f" x="911.099747"/>
      <use xlink:href="#NimbusRoman-Regular-75" x="961.099731"/>
      <use xlink:href="#NimbusRoman-Regular-74" x="1011.099716"/>
     </g>
    </g>
    <g id="line2d_50">
     <path d="M 273.8325 207.844937 
L 283.8325 207.844937 
L 293.8325 207.844937 
" style="fill: none; stroke: #bf00bf; stroke-width: 1.5; stroke-linecap: square"/>
     <g>
      <use xlink:href="#m5e2d5f6415" x="283.8325" y="207.844937" style="fill: #bf00bf; stroke: #bf00bf; stroke-linejoin: miter"/>
     </g>
    </g>
    <g id="text_24">
     <!-- KCenterGreedy -->
     <g transform="translate(301.8325 211.344937)scale(0.1 -0.1)">
      <defs>
       <path id="NimbusRoman-Regular-4b" d="M 2643 4115 
C 3027 4096 3078 4070 3078 3917 
C 3078 3776 2931 3584 2579 3258 
L 1446 2227 
L 1446 3539 
C 1453 4019 1517 4077 2035 4115 
L 2035 4237 
L 218 4237 
L 218 4115 
C 710 4083 781 4006 794 3539 
L 794 768 
C 787 224 717 154 218 122 
L 218 0 
L 2022 0 
L 2022 122 
C 1530 154 1453 224 1446 698 
L 1446 1894 
L 1613 2029 
L 2291 1357 
C 2784 864 3123 422 3123 269 
C 3123 173 3040 134 2854 128 
C 2822 128 2752 128 2675 122 
L 2675 0 
L 4627 0 
L 4627 122 
C 4294 128 4205 192 3622 813 
L 2131 2413 
L 3347 3616 
C 3782 4032 3885 4083 4320 4115 
L 4320 4237 
L 2643 4237 
L 2643 4115 
z
" transform="scale(0.015625)"/>
       <path id="NimbusRoman-Regular-43" d="M 3968 2886 
L 3910 4326 
L 3776 4326 
C 3738 4192 3635 4115 3507 4115 
C 3450 4115 3354 4134 3258 4166 
C 2944 4275 2624 4326 2323 4326 
C 1798 4326 1267 4128 870 3776 
C 422 3379 179 2790 179 2086 
C 179 781 1030 -90 2304 -90 
C 3027 -90 3667 205 4051 723 
L 3936 838 
C 3469 384 3040 192 2509 192 
C 2106 192 1747 320 1472 563 
C 1120 877 922 1453 922 2170 
C 922 3328 1517 4070 2445 4070 
C 2810 4070 3142 3936 3398 3686 
C 3603 3482 3699 3302 3821 2886 
L 3968 2886 
z
" transform="scale(0.015625)"/>
       <path id="NimbusRoman-Regular-47" d="M 4538 2266 
L 2906 2266 
L 2906 2150 
C 3405 2118 3456 2067 3469 1581 
L 3469 544 
C 3469 339 3085 166 2618 166 
C 1574 166 934 896 934 2086 
C 934 2688 1114 3270 1395 3584 
C 1670 3898 2074 4070 2509 4070 
C 2867 4070 3187 3949 3430 3718 
C 3622 3533 3725 3366 3885 2976 
L 4032 2976 
L 3981 4326 
L 3840 4326 
C 3802 4198 3686 4115 3552 4115 
C 3488 4115 3386 4134 3270 4179 
C 2982 4275 2682 4326 2394 4326 
C 1120 4326 205 3386 205 2080 
C 205 1453 378 973 736 595 
C 1158 154 1779 -90 2483 -90 
C 3040 -90 3834 134 4090 358 
L 4090 1658 
C 4102 2048 4173 2125 4538 2150 
L 4538 2266 
z
" transform="scale(0.015625)"/>
       <path id="NimbusRoman-Regular-64" d="M 3142 371 
C 3059 365 3021 365 2995 365 
C 2771 365 2714 435 2714 730 
L 2714 4358 
L 2682 4371 
C 2381 4269 2163 4198 1741 4090 
L 1741 3987 
C 1792 3994 1824 3994 1882 3994 
C 2118 3994 2176 3930 2176 3667 
L 2176 2669 
C 1933 2874 1760 2944 1504 2944 
C 768 2944 173 2221 173 1312 
C 173 493 646 -64 1357 -64 
C 1715 -64 1958 64 2176 365 
L 2176 -45 
L 2202 -64 
L 3142 269 
L 3142 371 
z
M 2176 653 
C 2176 608 2131 531 2067 461 
C 1958 333 1792 269 1606 269 
C 1069 269 723 781 723 1574 
C 723 2291 1037 2765 1523 2765 
C 1869 2765 2176 2464 2176 2125 
L 2176 653 
z
" transform="scale(0.015625)"/>
      </defs>
      <use xlink:href="#NimbusRoman-Regular-4b"/>
      <use xlink:href="#NimbusRoman-Regular-43" x="72.199982"/>
      <use xlink:href="#NimbusRoman-Regular-65" x="138.899979"/>
      <use xlink:href="#NimbusRoman-Regular-6e" x="183.299973"/>
      <use xlink:href="#NimbusRoman-Regular-74" x="233.299957"/>
      <use xlink:href="#NimbusRoman-Regular-65" x="261.099945"/>
      <use xlink:href="#NimbusRoman-Regular-72" x="305.499939"/>
      <use xlink:href="#NimbusRoman-Regular-47" x="338.799927"/>
      <use xlink:href="#NimbusRoman-Regular-72" x="410.999908"/>
      <use xlink:href="#NimbusRoman-Regular-65" x="444.299896"/>
      <use xlink:href="#NimbusRoman-Regular-65" x="488.69989"/>
      <use xlink:href="#NimbusRoman-Regular-64" x="533.099884"/>
      <use xlink:href="#NimbusRoman-Regular-79" x="583.099869"/>
     </g>
    </g>
    <g id="line2d_51">
     <path d="M 273.8325 222.024625 
L 283.8325 222.024625 
L 293.8325 222.024625 
" style="fill: none; stroke: #bfbf00; stroke-width: 1.5; stroke-linecap: square"/>
     <g>
      <use xlink:href="#m6857f2c40c" x="283.8325" y="222.024625" style="fill: #bfbf00; stroke: #bfbf00; stroke-linejoin: bevel"/>
     </g>
    </g>
    <g id="text_25">
     <!-- KMeansSampling -->
     <g transform="translate(301.8325 225.524625)scale(0.1 -0.1)">
      <defs>
       <path id="NimbusRoman-Regular-4d" d="M 5523 4237 
L 4250 4237 
L 2835 1005 
L 1357 4237 
L 90 4237 
L 90 4115 
C 614 4090 685 4019 698 3539 
L 698 941 
C 685 262 602 154 77 122 
L 77 0 
L 1581 0 
L 1581 122 
C 1088 147 992 282 979 941 
L 979 3520 
L 2586 0 
L 2675 0 
L 4314 3667 
L 4314 768 
C 4307 224 4237 154 3731 122 
L 3731 0 
L 5523 0 
L 5523 122 
C 5062 147 4979 237 4966 698 
L 4966 3539 
C 4979 4000 5056 4083 5523 4115 
L 5523 4237 
z
" transform="scale(0.015625)"/>
       <path id="NimbusRoman-Regular-73" d="M 2016 2010 
L 1990 2886 
L 1920 2886 
C 1888 2835 1856 2816 1818 2816 
C 1779 2816 1715 2829 1645 2861 
C 1498 2912 1350 2944 1197 2944 
C 691 2944 326 2611 326 2150 
C 326 1792 531 1536 1075 1229 
L 1446 1018 
C 1670 890 1779 736 1779 538 
C 1779 256 1574 77 1248 77 
C 806 77 582 320 435 973 
L 333 973 
L 333 -26 
L 416 -26 
C 461 38 486 51 563 51 
C 634 51 710 38 858 0 
C 1030 -38 1197 -64 1325 -64 
C 1824 -64 2227 307 2227 755 
C 2227 1075 2074 1286 1690 1517 
L 998 1926 
C 819 2035 723 2189 723 2362 
C 723 2624 922 2797 1216 2797 
C 1581 2797 1773 2586 1920 2010 
L 2016 2010 
z
" transform="scale(0.015625)"/>
      </defs>
      <use xlink:href="#NimbusRoman-Regular-4b"/>
      <use xlink:href="#NimbusRoman-Regular-4d" x="72.199982"/>
      <use xlink:href="#NimbusRoman-Regular-65" x="161.099976"/>
      <use xlink:href="#NimbusRoman-Regular-61" x="205.499969"/>
      <use xlink:href="#NimbusRoman-Regular-6e" x="249.899963"/>
      <use xlink:href="#NimbusRoman-Regular-73" x="299.899948"/>
      <use xlink:href="#NimbusRoman-Regular-53" x="338.799942"/>
      <use xlink:href="#NimbusRoman-Regular-61" x="394.399933"/>
      <use xlink:href="#NimbusRoman-Regular-6d" x="438.799927"/>
      <use xlink:href="#NimbusRoman-Regular-70" x="516.599915"/>
      <use xlink:href="#NimbusRoman-Regular-6c" x="566.599899"/>
      <use xlink:href="#NimbusRoman-Regular-69" x="594.399887"/>
      <use xlink:href="#NimbusRoman-Regular-6e" x="622.199875"/>
      <use xlink:href="#NimbusRoman-Regular-67" x="672.19986"/>
     </g>
    </g>
    <g id="line2d_52">
     <path d="M 273.8325 236.204312 
L 283.8325 236.204312 
L 293.8325 236.204312 
" style="fill: none; stroke: #ffa500; stroke-width: 1.5; stroke-linecap: square"/>
     <g>
      <use xlink:href="#m31162fbdf8" x="283.8325" y="236.204312" style="fill: #ffa500; stroke: #ffa500; stroke-linejoin: miter"/>
     </g>
    </g>
    <g id="text_26">
     <!-- LeastConfidence -->
     <g transform="translate(301.8325 239.704312)scale(0.1 -0.1)">
      <defs>
       <path id="NimbusRoman-Regular-66" d="M 1978 2880 
L 1190 2880 
L 1190 3622 
C 1190 4000 1312 4192 1555 4192 
C 1696 4192 1779 4128 1894 3942 
C 1997 3776 2074 3712 2182 3712 
C 2336 3712 2451 3827 2451 3974 
C 2451 4205 2170 4371 1786 4371 
C 1382 4371 1050 4198 883 3910 
C 717 3622 666 3392 659 2880 
L 134 2880 
L 134 2675 
L 659 2675 
L 659 666 
C 646 186 582 115 128 96 
L 128 0 
L 1792 0 
L 1792 96 
C 1267 115 1197 186 1197 666 
L 1197 2675 
L 1978 2675 
L 1978 2880 
z
" transform="scale(0.015625)"/>
      </defs>
      <use xlink:href="#NimbusRoman-Regular-4c"/>
      <use xlink:href="#NimbusRoman-Regular-65" x="61.099991"/>
      <use xlink:href="#NimbusRoman-Regular-61" x="105.499985"/>
      <use xlink:href="#NimbusRoman-Regular-73" x="149.899979"/>
      <use xlink:href="#NimbusRoman-Regular-74" x="188.799973"/>
      <use xlink:href="#NimbusRoman-Regular-43" x="216.59996"/>
      <use xlink:href="#NimbusRoman-Regular-6f" x="283.299957"/>
      <use xlink:href="#NimbusRoman-Regular-6e" x="333.299942"/>
      <use xlink:href="#NimbusRoman-Regular-66" x="383.299927"/>
      <use xlink:href="#NimbusRoman-Regular-69" x="416.599915"/>
      <use xlink:href="#NimbusRoman-Regular-64" x="444.399902"/>
      <use xlink:href="#NimbusRoman-Regular-65" x="494.399887"/>
      <use xlink:href="#NimbusRoman-Regular-6e" x="538.799881"/>
      <use xlink:href="#NimbusRoman-Regular-63" x="588.799866"/>
      <use xlink:href="#NimbusRoman-Regular-65" x="633.19986"/>
     </g>
    </g>
    <g id="line2d_53">
     <path d="M 273.8325 250.374625 
L 283.8325 250.374625 
L 293.8325 250.374625 
" style="fill: none; stroke: #ffc0cb; stroke-width: 1.5; stroke-linecap: square"/>
     <g>
      <use xlink:href="#m315e11255c" x="283.8325" y="250.374625" style="fill: #ffc0cb; stroke: #ffc0cb; stroke-linejoin: miter"/>
     </g>
    </g>
    <g id="text_27">
     <!-- LeastConfidenceDropout -->
     <g transform="translate(301.8325 253.874625)scale(0.1 -0.1)">
      <use xlink:href="#NimbusRoman-Regular-4c"/>
      <use xlink:href="#NimbusRoman-Regular-65" x="61.099991"/>
      <use xlink:href="#NimbusRoman-Regular-61" x="105.499985"/>
      <use xlink:href="#NimbusRoman-Regular-73" x="149.899979"/>
      <use xlink:href="#NimbusRoman-Regular-74" x="188.799973"/>
      <use xlink:href="#NimbusRoman-Regular-43" x="216.59996"/>
      <use xlink:href="#NimbusRoman-Regular-6f" x="283.299957"/>
      <use xlink:href="#NimbusRoman-Regular-6e" x="333.299942"/>
      <use xlink:href="#NimbusRoman-Regular-66" x="383.299927"/>
      <use xlink:href="#NimbusRoman-Regular-69" x="416.599915"/>
      <use xlink:href="#NimbusRoman-Regular-64" x="444.399902"/>
      <use xlink:href="#NimbusRoman-Regular-65" x="494.399887"/>
      <use xlink:href="#NimbusRoman-Regular-6e" x="538.799881"/>
      <use xlink:href="#NimbusRoman-Regular-63" x="588.799866"/>
      <use xlink:href="#NimbusRoman-Regular-65" x="633.19986"/>
      <use xlink:href="#NimbusRoman-Regular-44" x="677.599854"/>
      <use xlink:href="#NimbusRoman-Regular-72" x="749.799835"/>
      <use xlink:href="#NimbusRoman-Regular-6f" x="783.099823"/>
      <use xlink:href="#NimbusRoman-Regular-70" x="833.099808"/>
      <use xlink:href="#NimbusRoman-Regular-6f" x="883.099792"/>
      <use xlink:href="#NimbusRoman-Regular-75" x="933.099777"/>
      <use xlink:href="#NimbusRoman-Regular-74" x="983.099762"/>
     </g>
    </g>
    <g id="line2d_54">
     <path d="M 273.8325 264.544937 
L 283.8325 264.544937 
L 293.8325 264.544937 
" style="fill: none; stroke: #800080; stroke-width: 1.5; stroke-linecap: square"/>
     <g>
      <use xlink:href="#md1007e4995" x="283.8325" y="264.544937" style="fill: #800080; stroke: #800080; stroke-linejoin: miter"/>
     </g>
    </g>
    <g id="text_28">
     <!-- MarginSampling -->
     <g transform="translate(301.8325 268.044937)scale(0.1 -0.1)">
      <use xlink:href="#NimbusRoman-Regular-4d"/>
      <use xlink:href="#NimbusRoman-Regular-61" x="88.899994"/>
      <use xlink:href="#NimbusRoman-Regular-72" x="133.299988"/>
      <use xlink:href="#NimbusRoman-Regular-67" x="166.599976"/>
      <use xlink:href="#NimbusRoman-Regular-69" x="216.59996"/>
      <use xlink:href="#NimbusRoman-Regular-6e" x="244.399948"/>
      <use xlink:href="#NimbusRoman-Regular-53" x="294.399933"/>
      <use xlink:href="#NimbusRoman-Regular-61" x="349.999924"/>
      <use xlink:href="#NimbusRoman-Regular-6d" x="394.399918"/>
      <use xlink:href="#NimbusRoman-Regular-70" x="472.199905"/>
      <use xlink:href="#NimbusRoman-Regular-6c" x="522.19989"/>
      <use xlink:href="#NimbusRoman-Regular-69" x="549.999878"/>
      <use xlink:href="#NimbusRoman-Regular-6e" x="577.799866"/>
      <use xlink:href="#NimbusRoman-Regular-67" x="627.79985"/>
     </g>
    </g>
    <g id="line2d_55">
     <path d="M 273.8325 278.724625 
L 283.8325 278.724625 
L 293.8325 278.724625 
" style="fill: none; stroke: #a52a2a; stroke-width: 1.5; stroke-linecap: square"/>
     <g>
      <use xlink:href="#mb816191cd5" x="283.8325" y="278.724625" style="fill: #a52a2a; stroke: #a52a2a; stroke-linejoin: miter"/>
     </g>
    </g>
    <g id="text_29">
     <!-- MarginSamplingDropout -->
     <g transform="translate(301.8325 282.224625)scale(0.1 -0.1)">
      <use xlink:href="#NimbusRoman-Regular-4d"/>
      <use xlink:href="#NimbusRoman-Regular-61" x="88.899994"/>
      <use xlink:href="#NimbusRoman-Regular-72" x="133.299988"/>
      <use xlink:href="#NimbusRoman-Regular-67" x="166.599976"/>
      <use xlink:href="#NimbusRoman-Regular-69" x="216.59996"/>
      <use xlink:href="#NimbusRoman-Regular-6e" x="244.399948"/>
      <use xlink:href="#NimbusRoman-Regular-53" x="294.399933"/>
      <use xlink:href="#NimbusRoman-Regular-61" x="349.999924"/>
      <use xlink:href="#NimbusRoman-Regular-6d" x="394.399918"/>
      <use xlink:href="#NimbusRoman-Regular-70" x="472.199905"/>
      <use xlink:href="#NimbusRoman-Regular-6c" x="522.19989"/>
      <use xlink:href="#NimbusRoman-Regular-69" x="549.999878"/>
      <use xlink:href="#NimbusRoman-Regular-6e" x="577.799866"/>
      <use xlink:href="#NimbusRoman-Regular-67" x="627.79985"/>
      <use xlink:href="#NimbusRoman-Regular-44" x="677.799835"/>
      <use xlink:href="#NimbusRoman-Regular-72" x="749.999817"/>
      <use xlink:href="#NimbusRoman-Regular-6f" x="783.299805"/>
      <use xlink:href="#NimbusRoman-Regular-70" x="833.299789"/>
      <use xlink:href="#NimbusRoman-Regular-6f" x="883.299774"/>
      <use xlink:href="#NimbusRoman-Regular-75" x="933.299759"/>
      <use xlink:href="#NimbusRoman-Regular-74" x="983.299744"/>
     </g>
    </g>
    <g id="line2d_56">
     <path d="M 273.8325 292.904312 
L 283.8325 292.904312 
L 293.8325 292.904312 
" style="fill: none; stroke: #ff0000; stroke-width: 1.5; stroke-linecap: square"/>
     <g>
      <use xlink:href="#m6da3a64b7c" x="283.8325" y="292.904312" style="fill: #ff0000; stroke: #ff0000; stroke-linejoin: miter"/>
     </g>
    </g>
    <g id="text_30">
     <!-- RandomSampling -->
     <g transform="translate(301.8325 296.404312)scale(0.1 -0.1)">
      <defs>
       <path id="NimbusRoman-Regular-52" d="M 4218 122 
C 3974 141 3846 205 3661 422 
L 2342 2042 
C 3155 2202 3501 2522 3501 3110 
C 3501 3386 3418 3622 3251 3808 
C 3008 4070 2470 4237 1875 4237 
L 109 4237 
L 109 4115 
C 582 4064 646 4006 653 3539 
L 653 768 
C 646 224 589 160 109 122 
L 109 0 
L 1882 0 
L 1882 122 
C 1389 154 1312 230 1306 698 
L 1306 1958 
L 1664 1971 
L 3187 0 
L 4218 0 
L 4218 122 
z
M 1306 3770 
C 1306 3949 1376 4000 1632 4000 
C 2432 4000 2803 3725 2803 3123 
C 2803 2803 2669 2534 2438 2413 
C 2144 2246 1920 2208 1306 2195 
L 1306 3770 
z
" transform="scale(0.015625)"/>
      </defs>
      <use xlink:href="#NimbusRoman-Regular-52"/>
      <use xlink:href="#NimbusRoman-Regular-61" x="66.699997"/>
      <use xlink:href="#NimbusRoman-Regular-6e" x="111.099991"/>
      <use xlink:href="#NimbusRoman-Regular-64" x="161.099976"/>
      <use xlink:href="#NimbusRoman-Regular-6f" x="211.09996"/>
      <use xlink:href="#NimbusRoman-Regular-6d" x="261.099945"/>
      <use xlink:href="#NimbusRoman-Regular-53" x="338.899933"/>
      <use xlink:href="#NimbusRoman-Regular-61" x="394.499924"/>
      <use xlink:href="#NimbusRoman-Regular-6d" x="438.899918"/>
      <use xlink:href="#NimbusRoman-Regular-70" x="516.699905"/>
      <use xlink:href="#NimbusRoman-Regular-6c" x="566.69989"/>
      <use xlink:href="#NimbusRoman-Regular-69" x="594.499878"/>
      <use xlink:href="#NimbusRoman-Regular-6e" x="622.299866"/>
      <use xlink:href="#NimbusRoman-Regular-67" x="672.29985"/>
     </g>
    </g>
   </g>
  </g>
  <g id="axes_2">
   <g id="patch_8">
    <path d="M 276.48 276.48 
L 368.64 276.48 
L 368.64 207.36 
L 276.48 207.36 
z
" style="fill: #ffffff"/>
   </g>
   <g id="patch_9">
    <path d="M 280.669091 276.48 
L 287.508423 276.48 
L 287.508423 240.573506 
L 280.669091 240.573506 
z
" clip-path="url(#pa30607dc2f)" style="fill: #800080"/>
   </g>
   <g id="patch_10">
    <path d="M 289.218256 276.48 
L 296.057588 276.48 
L 296.057588 210.651429 
L 289.218256 210.651429 
z
" clip-path="url(#pa30607dc2f)" style="fill: #800080"/>
   </g>
   <g id="patch_11">
    <path d="M 297.767421 276.48 
L 304.606753 276.48 
L 304.606753 222.62026 
L 297.767421 222.62026 
z
" clip-path="url(#pa30607dc2f)" style="fill: #800080"/>
   </g>
   <g id="patch_12">
    <path d="M 306.316586 276.48 
L 313.155918 276.48 
L 313.155918 236.583896 
L 306.316586 236.583896 
z
" clip-path="url(#pa30607dc2f)" style="fill: #800080"/>
   </g>
   <g id="patch_13">
    <path d="M 314.865751 276.48 
L 321.705083 276.48 
L 321.705083 256.531948 
L 314.865751 256.531948 
z
" clip-path="url(#pa30607dc2f)" style="fill: #800080"/>
   </g>
   <g id="patch_14">
    <path d="M 323.414917 276.48 
L 330.254249 276.48 
L 330.254249 260.521558 
L 323.414917 260.521558 
z
" clip-path="url(#pa30607dc2f)" style="fill: #800080"/>
   </g>
   <g id="patch_15">
    <path d="M 331.964082 276.48 
L 338.803414 276.48 
L 338.803414 261.518961 
L 331.964082 261.518961 
z
" clip-path="url(#pa30607dc2f)" style="fill: #800080"/>
   </g>
   <g id="patch_16">
    <path d="M 340.513247 276.48 
L 347.352579 276.48 
L 347.352579 213.643636 
L 340.513247 213.643636 
z
" clip-path="url(#pa30607dc2f)" style="fill: #800080"/>
   </g>
   <g id="patch_17">
    <path d="M 349.062412 276.48 
L 355.901744 276.48 
L 355.901744 236.583896 
L 349.062412 236.583896 
z
" clip-path="url(#pa30607dc2f)" style="fill: #800080"/>
   </g>
   <g id="patch_18">
    <path d="M 357.611577 276.48 
L 364.450909 276.48 
L 364.450909 222.62026 
L 357.611577 222.62026 
z
" clip-path="url(#pa30607dc2f)" style="fill: #800080"/>
   </g>
   <g id="matplotlib.axis_3"/>
   <g id="matplotlib.axis_4"/>
   <g id="patch_19">
    <path d="M 276.48 276.48 
L 276.48 207.36 
" style="fill: none; stroke: #000000; stroke-width: 0.8; stroke-linejoin: miter; stroke-linecap: square"/>
   </g>
   <g id="patch_20">
    <path d="M 368.64 276.48 
L 368.64 207.36 
" style="fill: none; stroke: #000000; stroke-width: 0.8; stroke-linejoin: miter; stroke-linecap: square"/>
   </g>
   <g id="patch_21">
    <path d="M 276.48 276.48 
L 368.64 276.48 
" style="fill: none; stroke: #000000; stroke-width: 0.8; stroke-linejoin: miter; stroke-linecap: square"/>
   </g>
   <g id="patch_22">
    <path d="M 276.48 207.36 
L 368.64 207.36 
" style="fill: none; stroke: #000000; stroke-width: 0.8; stroke-linejoin: miter; stroke-linecap: square"/>
   </g>
   <g id="text_31">
    <!-- Unbalanced EuroSAT Class Distribution -->
    <g transform="translate(244.03125 201.36)scale(0.096 -0.096)">
     <defs>
      <path id="NimbusRoman-Regular-55" d="M 4512 4237 
L 3027 4237 
L 3027 4115 
C 3520 4083 3616 3955 3629 3296 
L 3629 1568 
C 3629 1133 3590 890 3482 698 
C 3309 390 2899 192 2419 192 
C 1965 192 1651 346 1478 646 
C 1363 851 1318 1088 1318 1491 
L 1318 3539 
C 1325 4006 1389 4070 1901 4115 
L 1901 4237 
L 90 4237 
L 90 4115 
C 595 4077 659 4013 666 3539 
L 666 1542 
C 666 435 1184 -90 2272 -90 
C 2970 -90 3450 134 3699 570 
C 3853 838 3910 1133 3910 1626 
L 3910 3296 
C 3923 3968 3994 4058 4512 4115 
L 4512 4237 
z
" transform="scale(0.015625)"/>
      <path id="NimbusRoman-Regular-62" d="M 979 4358 
L 947 4371 
C 685 4282 512 4224 205 4141 
L 19 4090 
L 19 3987 
C 58 3994 77 3994 128 3994 
C 384 3994 442 3936 442 3667 
L 442 346 
C 442 147 979 -64 1498 -64 
C 2342 -64 2995 640 2995 1555 
C 2995 2349 2509 2944 1869 2944 
C 1478 2944 1107 2720 979 2400 
L 979 4358 
z
M 979 2061 
C 979 2310 1280 2541 1613 2541 
C 1792 2541 1952 2477 2086 2355 
C 2291 2157 2432 1722 2432 1261 
C 2432 550 2125 141 1600 141 
C 1267 141 979 282 979 448 
L 979 2061 
z
" transform="scale(0.015625)"/>
      <path id="NimbusRoman-Regular-20" transform="scale(0.015625)"/>
      <path id="NimbusRoman-Regular-54" d="M 2893 122 
C 2368 147 2285 224 2278 698 
L 2278 3968 
L 2624 3968 
C 3366 3955 3501 3846 3642 3149 
L 3795 3149 
L 3757 4237 
L 147 4237 
L 109 3149 
L 262 3149 
C 410 3846 544 3955 1280 3968 
L 1626 3968 
L 1626 768 
C 1619 218 1562 154 1024 122 
L 1024 0 
L 2893 0 
L 2893 122 
z
" transform="scale(0.015625)"/>
     </defs>
     <use xlink:href="#NimbusRoman-Regular-55"/>
     <use xlink:href="#NimbusRoman-Regular-6e" x="72.199982"/>
     <use xlink:href="#NimbusRoman-Regular-62" x="122.199966"/>
     <use xlink:href="#NimbusRoman-Regular-61" x="172.199951"/>
     <use xlink:href="#NimbusRoman-Regular-6c" x="216.599945"/>
     <use xlink:href="#NimbusRoman-Regular-61" x="244.399933"/>
     <use xlink:href="#NimbusRoman-Regular-6e" x="288.799927"/>
     <use xlink:href="#NimbusRoman-Regular-63" x="338.799911"/>
     <use xlink:href="#NimbusRoman-Regular-65" x="383.199905"/>
     <use xlink:href="#NimbusRoman-Regular-64" x="427.599899"/>
     <use xlink:href="#NimbusRoman-Regular-20" x="477.599884"/>
     <use xlink:href="#NimbusRoman-Regular-45" x="502.599869"/>
     <use xlink:href="#NimbusRoman-Regular-75" x="563.69986"/>
     <use xlink:href="#NimbusRoman-Regular-72" x="613.699844"/>
     <use xlink:href="#NimbusRoman-Regular-6f" x="646.999832"/>
     <use xlink:href="#NimbusRoman-Regular-53" x="696.999817"/>
     <use xlink:href="#NimbusRoman-Regular-41" x="752.599808"/>
     <use xlink:href="#NimbusRoman-Regular-54" x="824.799789"/>
     <use xlink:href="#NimbusRoman-Regular-20" x="885.89978"/>
     <use xlink:href="#NimbusRoman-Regular-43" x="910.899765"/>
     <use xlink:href="#NimbusRoman-Regular-6c" x="977.599762"/>
     <use xlink:href="#NimbusRoman-Regular-61" x="1005.39975"/>
     <use xlink:href="#NimbusRoman-Regular-73" x="1049.799744"/>
     <use xlink:href="#NimbusRoman-Regular-73" x="1088.699738"/>
     <use xlink:href="#NimbusRoman-Regular-20" x="1127.599731"/>
     <use xlink:href="#NimbusRoman-Regular-44" x="1152.599716"/>
     <use xlink:href="#NimbusRoman-Regular-69" x="1224.799698"/>
     <use xlink:href="#NimbusRoman-Regular-73" x="1252.599686"/>
     <use xlink:href="#NimbusRoman-Regular-74" x="1291.49968"/>
     <use xlink:href="#NimbusRoman-Regular-72" x="1319.299667"/>
     <use xlink:href="#NimbusRoman-Regular-69" x="1352.599655"/>
     <use xlink:href="#NimbusRoman-Regular-62" x="1380.399643"/>
     <use xlink:href="#NimbusRoman-Regular-75" x="1430.399628"/>
     <use xlink:href="#NimbusRoman-Regular-74" x="1480.399612"/>
     <use xlink:href="#NimbusRoman-Regular-69" x="1508.1996"/>
     <use xlink:href="#NimbusRoman-Regular-6f" x="1535.999588"/>
     <use xlink:href="#NimbusRoman-Regular-6e" x="1585.999573"/>
    </g>
   </g>
  </g>
 </g>
 <defs>
  <clipPath id="p6880478b1b">
   <rect x="57.6" y="41.472" width="357.12" height="266.112"/>
  </clipPath>
  <clipPath id="pa30607dc2f">
   <rect x="276.48" y="207.36" width="92.16" height="69.12"/>
  </clipPath>
 </defs>
</svg>
